<?xml version="1.0" standalone="no"?>
<!DOCTYPE svg PUBLIC "-//W3C//DTD SVG 1.1//EN" "http://www.w3.org/Graphics/SVG/1.1/DTD/svg11.dtd" >
<svg>
<metadata>
Created by FontForge 20110222 at Sun Apr 20 11:57:53 2014
 By www-data
</metadata>
<defs>
<font id="Neocat-Regular" horiz-adv-x="577" >
  <font-face 
    font-family="Neocat"
    font-weight="400"
    font-stretch="normal"
    units-per-em="1000"
    panose-1="0 0 0 0 0 0 0 0 0 0"
    ascent="1000"
    descent="0"
    x-height="771.5"
    cap-height="907"
    bbox="15.7805 7.125 961.875 980.44"
    underline-thickness="50"
    underline-position="-50"
    unicode-range="U+000D-2212"
  />
<missing-glyph horiz-adv-x="250" 
 />
    <glyph glyph-name=".notdef" horiz-adv-x="250" 
 />
    <glyph glyph-name="NULL" horiz-adv-x="0" 
 />
    <glyph glyph-name="NULL" horiz-adv-x="0" 
 />
    <glyph glyph-name="nonmarkingreturn" unicode="&#xd;" horiz-adv-x="250" 
 />
    <glyph glyph-name="space" unicode=" " horiz-adv-x="250" 
 />
    <glyph glyph-name="exclam" unicode="!" horiz-adv-x="361" 
d="M138 123q0 17 17.5 28t39 15.5t39 1.5t17.5 -15q0 -26 3 -52t3 -52q0 -12 -17.5 -21.5t-39 -14t-39 -3.5t-17.5 9q0 26 -3 52t-3 52zM80 936q0 15 17.5 25.5t38.5 15t39 2.5t18 -13q5 -178 15.5 -350.5t29.5 -349.5q1 -14 -16 -24.5t-38 -16t-39.5 -3.5t-19.5 14
q-20 176 -30 349t-15 351z" />
    <glyph glyph-name="quotedbl" unicode="&#x22;" horiz-adv-x="557" 
d="M215 882q-4 -23 -6 -46t1 -45.5t13 -43t30 -38.5q9 -8 6.5 -14t-10 -9.5t-17.5 -5.5t-17 -2q-26 0 -51 7.5t-42 23.5q-24 22 -36 46.5t-16.5 50.5t-2.5 53.5t7 54.5q1 9 13 13t28 4t34.5 -4t34 -10.5t24.5 -15.5t7 -19zM445 872q-4 -23 -6 -46t1 -45t13 -42.5t30 -38.5
q9 -8 6.5 -14t-10 -10t-17.5 -6t-16 -2q-26 0 -51.5 8t-42.5 24q-24 21 -37 46.5t-19 54t-5.5 57.5t4.5 56q1 9 13.5 12t30 2t37 -6t35.5 -13t26 -17.5t8 -19.5z" />
    <glyph glyph-name="numbersign" unicode="#" horiz-adv-x="1024" 
d="M436 820q9 16 29 24.5t40.5 10t35.5 -3.5t15 -16q-2 -28 -1.5 -72.5t1.5 -87.5q1 -50 2 -104q56 -4 106 -6q43 -2 85.5 -1.5t65.5 7.5q7 2 18 -8t17 -23.5t2 -27t-28 -19.5q-25 -6 -69 -9t-89 -5q-52 -2 -110 -1q2 -80 3 -150q0 -30 0.5 -60t0 -56.5t-1.5 -47.5t-2 -32
q-2 -14 -21 -21t-41.5 -8t-41.5 4t-21 15q-4 16 -6 40t-3.5 51.5t-1.5 58v59.5q1 69 4 145q-48 1 -92 3q-38 2 -76 2.5t-59 0.5q-31 -1 -42 4.5t-9.5 14t12.5 18.5t25.5 19t29.5 15.5t24 7.5q14 2 45 2.5t63 1.5q37 1 78 2q-4 59 -4 110q0 22 0.5 43.5t2.5 41t5.5 34.5
t8.5 24zM590 368q-6 8 -2 15t11.5 13t16.5 10t13 6q13 5 25.5 8.5t26.5 4.5q5 1 17 1t17 -7q24 -30 49 -59.5t49 -60.5q6 -8 2.5 -15t-11.5 -12.5t-17 -10l-13 -6.5q-12 -5 -25 -8t-26 -5h-17.5t-16.5 6q-25 30 -50 59.5t-49 60.5zM232 217q-8 0 -11 12t-2 29t5.5 34.5
t10.5 28.5q8 15 12 24.5t8 25.5q3 12 11.5 21t19.5 15t23 9.5t22 5.5q6 1 17 0.5t21 -4t16 -10.5t3 -19q-6 -25 -17 -49t-25 -47q-20 -35 -47.5 -54.5t-66.5 -21.5zM390 644q6 -6 1 -13.5t-16 -14.5t-26.5 -13t-31 -8.5t-29 -1.5t-20.5 8q-15 15 -26.5 28t-23 25.5t-23 25.5
t-25.5 30q-9 10 6.5 23.5t38.5 23.5t47 12.5t33 -8.5q14 -16 25 -30.5t21.5 -29t22 -28.5t26.5 -29zM701 622q-16 -20 -32 -20.5t-39 7.5t-31 16.5t-8 25.5q2 8 4 13t5.5 10t10 11.5t17.5 18.5t23 24t19 23q14 23 38 34.5t48 8.5q9 -1 18.5 -5t16.5 -11t9 -16.5t-5 -21.5
q-20 -34 -45.5 -61t-48.5 -57z" />
    <glyph glyph-name="dollar" unicode="$" horiz-adv-x="1024" 
d="M436 820q9 16 29 24.5t40.5 10t35.5 -3.5t15 -16q-2 -28 -1.5 -72.5t1.5 -87.5q1 -50 2 -104q56 -4 106 -6q43 -2 85.5 -1.5t65.5 7.5q7 2 18 -8t17 -23.5t2 -27t-28 -19.5q-25 -6 -69 -9t-89 -5q-52 -2 -110 -1q2 -80 3 -150q0 -30 0.5 -60t0 -56.5t-1.5 -47.5t-2 -32
q-2 -14 -21 -21t-41.5 -8t-41.5 4t-21 15q-4 16 -6 40t-3.5 51.5t-1.5 58v59.5q1 69 4 145q-48 1 -92 3q-38 2 -76 2.5t-59 0.5q-31 -1 -42 4.5t-9.5 14t12.5 18.5t25.5 19t29.5 15.5t24 7.5q14 2 45 2.5t63 1.5q37 1 78 2q-4 59 -4 110q0 22 0.5 43.5t2.5 41t5.5 34.5
t8.5 24zM590 368q-6 8 -2 15t11.5 13t16.5 10t13 6q13 5 25.5 8.5t26.5 4.5q5 1 17 1t17 -7q24 -30 49 -59.5t49 -60.5q6 -8 2.5 -15t-11.5 -12.5t-17 -10l-13 -6.5q-12 -5 -25 -8t-26 -5h-17.5t-16.5 6q-25 30 -50 59.5t-49 60.5zM232 217q-8 0 -11 12t-2 29t5.5 34.5
t10.5 28.5q8 15 12 24.5t8 25.5q3 12 11.5 21t19.5 15t23 9.5t22 5.5q6 1 17 0.5t21 -4t16 -10.5t3 -19q-6 -25 -17 -49t-25 -47q-20 -35 -47.5 -54.5t-66.5 -21.5zM390 644q6 -6 1 -13.5t-16 -14.5t-26.5 -13t-31 -8.5t-29 -1.5t-20.5 8q-15 15 -26.5 28t-23 25.5t-23 25.5
t-25.5 30q-9 10 6.5 23.5t38.5 23.5t47 12.5t33 -8.5q14 -16 25 -30.5t21.5 -29t22 -28.5t26.5 -29zM701 622q-16 -20 -32 -20.5t-39 7.5t-31 16.5t-8 25.5q2 8 4 13t5.5 10t10 11.5t17.5 18.5t23 24t19 23q14 23 38 34.5t48 8.5q9 -1 18.5 -5t16.5 -11t9 -16.5t-5 -21.5
q-20 -34 -45.5 -61t-48.5 -57z" />
    <glyph glyph-name="percent" unicode="%" horiz-adv-x="846" 
d="M507 759q8 16 27.5 25t38 10t30.5 -7.5t5 -27.5q-23 -64 -60 -149t-78.5 -175.5t-84 -178t-75.5 -156.5q-7 -15 -27 -23.5t-39.5 -9t-31 7.5t-1.5 25q9 15 28 58t44.5 101.5t55 128t59.5 137.5t58.5 129t50.5 105zM216 539q30 6 47.5 24t11.5 59q-5 38 -12.5 59.5
t-16.5 32t-20.5 13t-24.5 4.5q-14 2 -30 -6t-29 -22.5t-21 -34t-5 -40.5q2 -17 8.5 -36t19.5 -33t33 -20t49 3zM344 628q0 -40 -13 -65.5t-33 -40.5t-44 -22t-47 -11q-46 -9 -77 1t-50 30.5t-28.5 47.5t-12.5 52q-5 33 10 63t39 52.5t51.5 36.5t48.5 14q21 1 48 -1.5
t51 -17.5t40.5 -47t16.5 -92zM616 386q-29 -8 -45 -27.5t-7 -60.5q8 -38 17 -58.5t19 -30t21.5 -11.5t24.5 -3q14 0 29.5 9t27.5 24.5t18.5 35.5t1.5 41q-3 16 -11 34.5t-22 32t-34.5 18t-48.5 -7.5zM496 287q-3 40 7.5 66.5t29.5 43t42.5 25.5t46.5 15q45 12 76.5 4.5
t52 -26.5t32 -45t16.5 -51q7 -33 -5.5 -64t-34.5 -55.5t-48.5 -40.5t-47.5 -18t-48 -1.5t-52 13.5t-44 44t-23 90z" />
    <glyph glyph-name="ampersand" unicode="&#x26;" horiz-adv-x="1024" 
d="M436 820q9 16 29 24.5t40.5 10t35.5 -3.5t15 -16q-2 -28 -1.5 -72.5t1.5 -87.5q1 -50 2 -104q56 -4 106 -6q43 -2 85.5 -1.5t65.5 7.5q7 2 18 -8t17 -23.5t2 -27t-28 -19.5q-25 -6 -69 -9t-89 -5q-52 -2 -110 -1q2 -80 3 -150q0 -30 0.5 -60t0 -56.5t-1.5 -47.5t-2 -32
q-2 -14 -21 -21t-41.5 -8t-41.5 4t-21 15q-4 16 -6 40t-3.5 51.5t-1.5 58v59.5q1 69 4 145q-48 1 -92 3q-38 2 -76 2.5t-59 0.5q-31 -1 -42 4.5t-9.5 14t12.5 18.5t25.5 19t29.5 15.5t24 7.5q14 2 45 2.5t63 1.5q37 1 78 2q-4 59 -4 110q0 22 0.5 43.5t2.5 41t5.5 34.5
t8.5 24zM590 368q-6 8 -2 15t11.5 13t16.5 10t13 6q13 5 25.5 8.5t26.5 4.5q5 1 17 1t17 -7q24 -30 49 -59.5t49 -60.5q6 -8 2.5 -15t-11.5 -12.5t-17 -10l-13 -6.5q-12 -5 -25 -8t-26 -5h-17.5t-16.5 6q-25 30 -50 59.5t-49 60.5zM232 217q-8 0 -11 12t-2 29t5.5 34.5
t10.5 28.5q8 15 12 24.5t8 25.5q3 12 11.5 21t19.5 15t23 9.5t22 5.5q6 1 17 0.5t21 -4t16 -10.5t3 -19q-6 -25 -17 -49t-25 -47q-20 -35 -47.5 -54.5t-66.5 -21.5zM390 644q6 -6 1 -13.5t-16 -14.5t-26.5 -13t-31 -8.5t-29 -1.5t-20.5 8q-15 15 -26.5 28t-23 25.5t-23 25.5
t-25.5 30q-9 10 6.5 23.5t38.5 23.5t47 12.5t33 -8.5q14 -16 25 -30.5t21.5 -29t22 -28.5t26.5 -29zM701 622q-16 -20 -32 -20.5t-39 7.5t-31 16.5t-8 25.5q2 8 4 13t5.5 10t10 11.5t17.5 18.5t22.5 24t19.5 23q17 22 39.5 34t46.5 9q9 -1 18.5 -5t16.5 -11t9 -16.5
t-5 -21.5q-20 -34 -45.5 -61t-48.5 -57z" />
    <glyph glyph-name="quotesingle" unicode="'" horiz-adv-x="350" 
d="M114 863q-3 16 20 28t52.5 18t55 3.5t28.5 -16.5q5 -29 7.5 -57t-2.5 -55t-18.5 -52t-39.5 -47q-20 -17 -47.5 -24.5t-55.5 -7.5q-8 0 -18.5 2t-18.5 6t-10.5 10t6.5 14q22 19 33 40.5t14 44t0.5 46t-6.5 47.5z" />
    <glyph glyph-name="parenleft" unicode="(" horiz-adv-x="474" 
d="M336 969q10 5 28.5 7t32.5 0.5t16.5 -7.5t-19.5 -17q-33 -16 -59.5 -32t-49 -36t-40.5 -45.5t-34 -59.5q-32 -69 -45 -143t-7 -149q5 -60 20.5 -121t43 -116.5t68 -101.5t95.5 -76q6 -3 -3.5 -11t-26 -15t-34.5 -10.5t-28 1.5q-34 18 -57.5 37t-41.5 41.5t-33 49.5
t-31 60q-41 85 -59 167t-10 177q6 76 25 136t52.5 108t82 86t114.5 70z" />
    <glyph glyph-name="parenright" unicode=")" horiz-adv-x="474" 
d="M139 969q66 -32 114.5 -70.5t82.5 -86.5t52.5 -108t24.5 -136q7 -94 -11 -176.5t-58 -166.5q-16 -33 -31 -60t-33 -49.5t-42 -41.5t-57 -37q-10 -6 -28 -2.5t-34 10.5t-26 15t-4 11q55 30 95.5 76.5t68 102t43 116.5t21.5 121q8 75 -6.5 148.5t-46.5 142.5
q-16 34 -34.5 59.5t-40.5 46t-48.5 36.5t-59.5 32q-22 10 -19.5 16t16.5 8t32.5 0t28.5 -7z" />
    <glyph glyph-name="asterisk" unicode="*" horiz-adv-x="437" 
d="M195 888q4 7 12.5 10.5t17 4t15 -1.5t6.5 -7q-1 -12 -0.5 -31t0.5 -37q0 -21 1 -45q24 -2 46 -3q18 -1 36.5 -0.5t28.5 3.5q3 1 8 -3.5t7 -10.5t0 -11.5t-12 -8.5q-11 -3 -30 -4l-38 -2q-22 -1 -47 0q0 -35 1 -65q0 -26 0.5 -50t-1.5 -34q-1 -6 -9 -9t-17.5 -3.5
t-17.5 1.5t-9 7q-4 14 -4.5 39.5t-0.5 50.5q0 29 2 62q-22 0 -40 1q-16 1 -32.5 1.5t-25.5 0.5q-20 -1 -22 4t5 11.5t17.5 12t16.5 5.5q6 1 19 1t27 1q16 0 34 1q-2 25 -2 47q0 19 1.5 36.5t6.5 25.5zM261 694q-5 7 4 12t13 7q12 5 22 5q2 1 7.5 0.5t7.5 -2.5
q10 -14 20.5 -26.5t21.5 -25.5q5 -7 -4 -12t-13 -7q-5 -2 -10.5 -3t-11.5 -3h-7t-7 3q-22 24 -43 52zM107 629q-3 0 -4.5 5t-1 12t2.5 14.5t4 12.5q4 7 5.5 11t3.5 11q2 11 13 15.5t20 6.5q5 1 16 -1.5t8 -12.5q-5 -20 -18 -42q-17 -31 -49 -32zM175 812q4 -4 -2 -9
t-16 -8.5t-20 -4.5t-14 4q-13 13 -21.5 23t-21.5 24q-4 4 2.5 9.5t17 10t20.5 5.5t14 -3q12 -14 20 -26t21 -25zM309 803q-7 -9 -14 -9t-17 3q-10 4 -12 12t4 16q5 8 6 9t4 5q5 5 9 9.5t6 9.5q7 11 17 15.5t20 3.5q8 -1 15.5 -7t1.5 -16q-8 -15 -19 -26.5t-21 -24.5z" />
    <glyph glyph-name="plus" unicode="+" horiz-adv-x="1024" 
d="M436 820q9 16 29 24.5t40.5 10t35.5 -3.5t15 -16q-2 -28 -1.5 -72.5t1.5 -87.5q1 -50 2 -104q56 -4 106 -6q43 -2 85.5 -1.5t65.5 7.5q7 2 18 -8t17 -23.5t2 -27t-28 -19.5q-25 -6 -69 -9t-89 -5q-52 -2 -110 -1q2 -80 3 -150q0 -30 0.5 -60t0 -56.5t-1.5 -47.5t-2 -32
q-2 -14 -21 -21t-41.5 -8t-41.5 4t-21 15q-4 16 -6 40t-3.5 51.5t-1.5 58v59.5q1 69 4 145q-48 1 -92 3q-38 2 -76 2.5t-59 0.5q-31 -1 -42 4.5t-9.5 14t12.5 18.5t25.5 19t29.5 15.5t24 7.5q14 2 45 2.5t63 1.5q37 1 78 2q-4 59 -4 110q0 22 0.5 43.5t2.5 41t5.5 34.5
t8.5 24z" />
    <glyph glyph-name="comma" unicode="," horiz-adv-x="347" 
d="M123 239q-2 10 8 19.5t27 16t37 10.5t38 4t30.5 -4t14.5 -13q5 -28 7.5 -56t-2 -55.5t-17.5 -52.5t-40 -47q-20 -17 -47.5 -24.5t-55.5 -7.5q-7 0 -18 2t-19.5 6t-11 10t7.5 14q23 19 33.5 40.5t13.5 44t0.5 46t-6.5 47.5z" />
    <glyph glyph-name="hyphen" unicode="-" horiz-adv-x="647" 
d="M290 416q-41 1 -81 0q-12 -5 -27.5 -9.5t-32 -7t-32.5 -1.5t-29 7t-15 14.5t2.5 18t12.5 17.5t16 12q46 25 95.5 34t100.5 9.5t102 -4t100 -5.5q7 0 18 -2t19 -7.5t10.5 -14t-6.5 -20.5q-17 -25 -48 -36t-57 -11q-37 0 -73.5 2t-74.5 4z" />
    <glyph glyph-name="period" unicode="." horiz-adv-x="332" 
d="M119 164q5 14 15.5 24t23 16t26 8t25.5 1q11 -2 21 -7t16.5 -13.5t8 -20t-3.5 -25.5q-4 -10 -5.5 -20t-2.5 -21q-2 -27 -24.5 -43.5t-48.5 -20t-47.5 8.5t-19.5 43q1 18 5.5 35.5t10.5 34.5z" />
    <glyph glyph-name="slash" unicode="/" horiz-adv-x="579" 
d="M155 86q-11 -12 -28 -18.5t-34 -7t-32 4t-22 14.5t-4 25.5t22 35.5q13 13 23.5 33.5t19.5 43t17.5 45.5t17.5 42q22 48 42.5 94t43.5 94q21 45 45 87.5t47 85t45.5 86t40.5 91.5q15 38 43.5 57.5t54 20.5t39.5 -16.5t0 -54.5q-22 -57 -48.5 -109.5t-54.5 -104l-56 -103
t-53 -106.5q-19 -42 -37.5 -88.5t-38 -92t-42.5 -87t-51 -72.5z" />
    <glyph glyph-name="zero" unicode="0" horiz-adv-x="481" 
d="M231 789q-19 -7 -34 -51.5t-24.5 -109.5t-12.5 -141t2 -147t19 -127t38 -80q6 -6 14 4t16.5 26t16 33t10.5 24q20 44 29.5 98.5t12.5 106t2.5 92.5t-0.5 58q0 28 -7.5 67t-19.5 74t-28 57t-34 16zM426 583q6 -72 -1 -149t-28.5 -147t-58 -126.5t-89.5 -89.5
q-10 -6 -27 -7.5t-35.5 1.5t-35 9t-24.5 14q-35 35 -55 103.5t-25.5 151.5t3 171.5t30.5 164t57.5 129t83.5 65.5q32 8 66.5 -15.5t63.5 -66t49.5 -98t25.5 -110.5z" />
    <glyph glyph-name="one" unicode="1" horiz-adv-x="333" 
d="M142 816q0 22 16 36t34.5 17.5t34 -4.5t15.5 -29q-2 -145 -4.5 -257.5t-8.5 -199t-17 -150t-28 -109.5q-6 -16 -27 -26.5t-42.5 -12.5t-36.5 4.5t-9 23.5q32 89 49.5 159.5t25.5 129t8 109t-2.5 99.5t-5.5 99.5t-2 110.5z" />
    <glyph glyph-name="two" unicode="2" horiz-adv-x="605" 
d="M237 666q3 -13 -12 -24t-35 -16t-39.5 -1.5t-23.5 19.5q-12 42 -1.5 77.5t36.5 62.5t63 45.5t77 26t79 3t69 -21.5q22 -13 35.5 -44t18 -68t-0.5 -74.5t-21 -62.5q-42 -66 -77.5 -116.5t-69 -98t-67.5 -97.5t-74 -115q8 2 16.5 3.5t19.5 3.5q17 3 40.5 7.5t52.5 11.5
q57 13 107 24t107 16q39 4 48 -5.5t-2.5 -24.5t-39 -32.5t-60.5 -29.5q-38 -14 -65.5 -21.5t-53 -12t-53 -9t-65.5 -11.5q-17 -3 -31 -5.5t-27.5 -4.5t-27 -3.5t-30.5 -4.5q-3 0 -20 1t-35 4t-30.5 8.5t-6.5 15.5q25 40 47 77t44 72.5t45.5 72t50.5 75.5q22 31 50.5 69.5
t54 80.5t43 85t17.5 84q0 10 -5.5 25t-15.5 28.5t-24 23.5t-30 10q-21 0 -38 -13t-27.5 -32.5t-14.5 -42t2 -41.5z" />
    <glyph glyph-name="three" unicode="3" horiz-adv-x="545" 
d="M161 759q-4 -11 -23 -18.5t-39.5 -11t-36.5 -1.5t-13 11q8 25 29 50t51 46.5t65 38t70 25.5t68 8.5t58 -13.5q38 -20 45 -53t-5.5 -70t-38 -75t-51 -69t-45 -51t-20.5 -21q31 6 57 9.5t49 0t46 -16.5t49 -39q22 -22 29.5 -54t5 -66t-13.5 -66.5t-27 -56.5
q-39 -58 -75.5 -93t-78.5 -54.5t-93.5 -27.5t-118.5 -12q-28 -2 -34.5 10t-0.5 26.5t19 27t25 13.5q47 3 97 19.5t90.5 42.5t66 59t24.5 70q-4 177 -221 130q-4 -1 -14 -1.5t-18.5 1t-12.5 5.5t4 13q19 22 42 48t47 53t46 53.5t40 51.5q23 33 24.5 58.5t-11 42.5t-34.5 24
t-45.5 2t-45 -21.5t-31.5 -47.5z" />
    <glyph glyph-name="four" unicode="4" horiz-adv-x="509" 
d="M196 816q7 6 25.5 10t36 5t28.5 -2.5t4 -12.5q-38 -49 -61 -98t-36 -89q-15 -47 -21 -90l145 78q10 58 21 108q4 21 9.5 43t11 40.5t11.5 33t11 22.5q10 14 27.5 19t34 3.5t27.5 -8t7 -14.5q-22 -43 -38 -106.5t-28 -137t-20 -151t-13 -147t-8 -125.5t-4 -87
q-1 -17 -17 -26t-35.5 -10t-35.5 5.5t-16 20.5q0 40 2.5 93.5t8 111.5t12.5 117t16 111q-74 -43 -131 -69q-24 -11 -47 -20.5t-40.5 -13t-27 -0.5t-7.5 16q3 16 8.5 45t14 64.5t20.5 74t27.5 74t35 65.5t42.5 47z" />
    <glyph glyph-name="five" unicode="5" horiz-adv-x="556" 
d="M483 887q31 6 40 -2.5t4.5 -22t-19 -27t-32.5 -17.5q-30 -6 -50.5 -8t-39 -2t-39 0.5t-50.5 0.5q-11 -27 -19 -45.5t-13.5 -33t-10.5 -26.5t-9.5 -27t-10.5 -34t-14 -47q26 6 40 13.5t27 12t30.5 3.5t49.5 -11q20 -6 32.5 -24.5t18.5 -42.5t5.5 -49.5t-6.5 -46.5
q-18 -67 -49.5 -125.5t-73.5 -106t-93 -84t-108 -58.5q-17 -7 -35 -3.5t-27.5 11.5t-6.5 19.5t29 20.5q15 6 34 14.5t37.5 19t35 22t27.5 24.5q26 29 46 64t39 70q9 15 19 33.5t17.5 38.5t11 40t-1.5 40q-8 30 -26.5 36.5t-41 0t-44.5 -19.5t-37 -21q-4 -2 -17 -5t-26 -2.5
t-22 6t-5 19.5q12 43 27 84t30 81.5t29 81.5t24 85q3 11 11 19t18 12.5t21 6.5t19 2q27 0 50.5 -1t47.5 -0.5t49.5 3t57.5 8.5z" />
    <glyph glyph-name="six" unicode="6" horiz-adv-x="572" 
d="M126 343q-10 -40 -7.5 -80t13.5 -73t29.5 -54t41.5 -23q29 -3 55 28.5t45.5 79.5t30.5 105.5t10 106.5t-16.5 82.5t-48.5 33.5q-29 0 -54.5 -24.5t-45.5 -58.5t-34 -68.5t-19 -54.5zM495 921q20 6 30 0.5t10.5 -15.5t-8 -20.5t-25.5 -14.5q-36 -8 -67 -24t-58 -37
t-50 -45.5t-41 -48.5q-43 -57 -74 -125q82 35 139 20q24 -6 45.5 -24t35 -53.5t16.5 -90.5t-9 -136q-6 -38 -27.5 -81.5t-54 -82.5t-72.5 -67.5t-82 -36.5t-83.5 11.5t-76.5 76.5q-9 15 -14 50.5t-3 85.5t12.5 110t32.5 124t57 127.5t86.5 120t121 102.5t159.5 74z" />
    <glyph glyph-name="seven" unicode="7" horiz-adv-x="473" 
d="M68 804q-25 -1 -34 10t-6.5 24t16 24t33.5 11q45 1 91 -1.5t91 4.5q35 5 69 11t69 10q8 1 17.5 -1.5t16.5 -7.5t9.5 -13t-2.5 -18q-48 -94 -86 -188.5t-69 -197.5q-14 -44 -27 -88.5t-23 -89.5t-14.5 -91t-1.5 -93q1 -18 -13 -30.5t-32 -17t-33.5 0t-16.5 21.5
q-4 53 1 104.5t15.5 102t25 100.5t29.5 100q15 49 28.5 89t28 77.5t32 76t40.5 84.5q-15 -5 -24.5 -7t-19 -3.5t-22.5 -2t-34 -1.5q-40 -2 -77.5 0t-76.5 1z" />
    <glyph glyph-name="eight" unicode="8" horiz-adv-x="443" 
d="M231 408q-28 -50 -48 -94q-17 -38 -29.5 -75.5t-6.5 -56.5q12 -38 32.5 -50t41 -5.5t36.5 28.5t19 53q3 34 -3.5 69.5t-15.5 64.5q-11 34 -26 66zM295 769q4 20 -1 38t-13.5 31t-18 20t-14.5 4q-20 -13 -22.5 -48t2.5 -73q6 -44 20 -97q11 26 21 50q8 20 15.5 41t10.5 34
zM275 926q50 0 77.5 -19.5t38 -51.5t6 -73.5t-18 -85.5t-34 -88t-42.5 -80q5 -11 9 -21q4 -8 8 -17t7 -14q15 -25 31.5 -58t26.5 -70t10.5 -77t-16.5 -78.5t-55.5 -73.5t-104.5 -63q-21 -9 -55 -10t-64.5 14.5t-49 53t-7.5 106.5q3 19 15 49.5t28.5 64t34 66t32 58
t22.5 38.5t5 8q-1 -2 -9 15t-18 46t-19.5 67t-13 78t0.5 79t21 69t49 49t85 19z" />
    <glyph glyph-name="nine" unicode="9" horiz-adv-x="489" 
d="M155 663q25 -18 49.5 -21t44.5 3t33.5 18.5t16.5 24.5q3 14 6.5 38.5t7.5 47.5q4 27 8 56q-14 7 -36.5 1t-46.5 -20.5t-46.5 -34.5t-36.5 -41t-15.5 -40.5t15.5 -31.5zM436 904q-15 -108 -33 -221.5t-31.5 -219.5t-19.5 -198t2 -157q2 -15 -11.5 -29t-31.5 -19.5
t-35.5 -0.5t-22.5 28q-5 19 -6.5 49t-0.5 66.5t4 77t7 79.5q9 92 23 198q-73 -9 -129 0q-24 3 -47 10.5t-40 21t-27.5 33.5t-8.5 48q3 55 34.5 97.5t77.5 72.5t98.5 48.5t97 26.5t73.5 5t27 -16z" />
    <glyph glyph-name="colon" unicode=":" horiz-adv-x="308" 
d="M107 589q6 14 16 24t22.5 16t26.5 8t26 1q11 -1 20.5 -6.5t16 -14t8.5 -20.5t-3 -25q-4 -11 -5.5 -21t-2.5 -20q-1 -27 -24 -43.5t-49.5 -20t-48 8.5t-19.5 43q3 37 16 70zM89 364q5 14 15.5 24t23 16t26 8t25.5 1q11 -2 21 -7t16.5 -13.5t8 -20t-3.5 -25.5
q-4 -10 -5.5 -20t-2.5 -21q-2 -27 -24.5 -43.5t-48.5 -20t-47.5 8.5t-19.5 43q1 18 5.5 35.5t10.5 34.5z" />
    <glyph glyph-name="semicolon" unicode=";" horiz-adv-x="347" 
d="M119 653q5 14 15.5 24t23 16t26 8t25.5 1q11 -2 21 -7t16.5 -13.5t8 -20t-3.5 -25.5q-4 -10 -5.5 -20t-2.5 -21q-1 -18 -12 -31.5t-27 -22t-34 -11t-33.5 2t-25 16.5t-8.5 33q1 18 5.5 36t10.5 35zM103 409q-2 11 8 20t27 15.5t37 10.5t38 4t30.5 -4t14.5 -13
q5 -28 7.5 -56t-2 -55.5t-17.5 -52.5t-40 -47q-20 -17 -47.5 -24.5t-55.5 -7.5q-7 0 -18 2t-19.5 6t-11 10t7.5 14q23 19 33.5 40.5t13.5 44t0.5 46t-6.5 47.5z" />
    <glyph glyph-name="less" unicode="&#x3c;" horiz-adv-x="488" 
d="M334 743q17 10 41.5 10.5t41.5 -6.5t20 -19t-23 -27q-13 -8 -41.5 -23.5t-61.5 -36t-65.5 -44.5t-55.5 -48t-30.5 -47t10.5 -41q49 -50 107.5 -99.5t118.5 -87.5q20 -13 13 -27.5t-26.5 -24t-44 -12.5t-39.5 7q-48 32 -89.5 69t-86.5 72q-18 14 -37 29t-33 31.5t-20 35
t2 41.5q13 40 47.5 75.5t77.5 66.5t89.5 57.5t84.5 48.5z" />
    <glyph glyph-name="equal" unicode="=" horiz-adv-x="647" 
d="M300 295q-20 0 -40.5 1t-40.5 0q-12 -5 -27.5 -9.5t-32 -7t-32.5 -2t-29 6.5t-15 15t2.5 18t12.5 17t15 12q46 25 95.5 33.5t100.5 9t102 -3.5t101 -4q8 0 18.5 -2.5t18.5 -7.5t10.5 -13.5t-6.5 -21.5q-17 -24 -48 -35.5t-57 -11.5q-18 0 -38.5 1t-40.5 2t-38 2t-31 1z
M305 524q-20 2 -39 3.5t-42 -2.5q-9 -3 -23 -8t-30.5 -8.5t-34 -3.5t-33.5 8q-13 6 -15 15t2.5 18t12.5 17t15 12q46 25 95.5 33.5t100.5 9t102 -3.5t101 -4q8 0 18.5 -2.5t18.5 -7.5t10.5 -13.5t-6.5 -21.5q-8 -12 -20.5 -21t-27 -14.5t-29.5 -8.5t-28 -3q-37 1 -73.5 1
t-74.5 5z" />
    <glyph glyph-name="greater" unicode="&#x3e;" horiz-adv-x="488" 
d="M148 779q37 -22 83.5 -48.5t90 -57.5t77.5 -67t48 -76q7 -23 1.5 -41.5t-19 -34.5t-32.5 -30.5t-38 -29.5q-46 -35 -86.5 -72.5t-90.5 -69.5q-15 -9 -39 -6.5t-43.5 12.5t-26.5 24t13 27q60 39 119 88t107 100q17 18 9.5 41t-30.5 47t-55.5 47.5t-65.5 44t-61.5 36.5
t-41.5 24q-25 15 -22.5 27.5t19.5 19t41.5 6t42.5 -10.5z" />
    <glyph glyph-name="question" unicode="?" horiz-adv-x="428" 
d="M207 132q12 2 28 -3.5t16 -22.5q0 -14 -4 -21t-21 -9q-1 1 -6 -0.5t-6 -2.5q-4 -1 -9 -11q-8 -17 -26.5 -24t-35.5 -5q-14 2 -24.5 10.5t-2.5 24.5q15 28 38.5 43.5t52.5 20.5zM173 862q-6 -15 -24 -22.5t-35.5 -6.5t-28 10.5t-2.5 28.5q20 46 47.5 68.5t58.5 27t62 -7.5
t58 -36.5t47 -58.5t29 -74q13 -61 -2 -110.5t-43 -92t-62.5 -82t-60.5 -82t-36.5 -91t10.5 -108.5q6 -16 -6 -28.5t-30 -17.5t-35.5 -1.5t-22.5 20.5q-16 49 -16.5 91.5t11.5 80.5t36 73.5t57 70.5q16 17 35.5 37t36 42t28 46.5t12.5 51.5q0 9 -5.5 33t-15.5 52.5
t-22.5 55.5t-26.5 43t-28 15t-26 -28z" />
    <glyph glyph-name="at" unicode="@" horiz-adv-x="875" 
d="M408 554q-18 -13 -27 -44t-11.5 -67t0 -70t8.5 -53q5 -15 19.5 -18.5t30.5 -1.5q18 2 41 10l10 118q2 22 3.5 42.5t3 36.5t2 25t-0.5 8q-2 -3 -12 0.5t-23 8t-25.5 7t-18.5 -1.5zM604 680q0 -51 -4.5 -112t-12.5 -116t-18 -95.5t-20 -50.5q6 -8 15 -13q8 -5 19 -7t27 3
q33 8 59 43q11 15 22 37.5t19.5 54.5t14.5 74.5t7 98.5q0 20 -3 48.5t-18 60.5t-45.5 63.5t-85.5 57.5q-2 1 -20 11t-46 20t-63 16t-71.5 -1.5t-71.5 -33t-62 -77.5q-15 -27 -33.5 -72.5t-33 -99t-19.5 -109t8 -103.5q7 -28 20 -63t32 -69t45.5 -63t62 -45.5t80.5 -17
t101 22.5q20 8 32 4t13 -14t-9.5 -23.5t-35.5 -23.5q-50 -21 -114.5 -20t-127 29t-114 85t-73.5 148q-7 29 -7.5 68.5t4.5 83.5t14.5 90t22.5 88.5t28.5 79t32.5 61.5q38 55 83.5 85t92 41.5t91 9.5t80.5 -9.5t61 -17.5t32 -14q74 -40 116 -87.5t62 -90.5t24.5 -76.5
t3.5 -44.5q-8 -84 -22.5 -144t-32.5 -101.5t-37 -67t-35 -39.5t-28 -20t-15 -8q-18 -11 -34.5 -15t-31.5 -2.5t-28 7t-25 12.5q-27 17 -50 46q-76 -26 -131 -20q-23 3 -43.5 13t-33.5 31t-16 55t9 85q15 63 37.5 99.5t48 54t50.5 21t45.5 1.5t33 -6t12.5 0q0 3 2 19.5
t1 37.5t-7.5 42.5t-23.5 36t-47.5 17.5t-78.5 -14q-2 -1 -12 -0.5t-16 3t-2 8.5t30 16q9 4 32.5 10t52.5 10t61 3t58 -11.5t43 -33t17 -61.5z" />
    <glyph glyph-name="A" unicode="A" horiz-adv-x="730" 
d="M394 765q-25 -61 -46 -116q-9 -23 -18.5 -47t-17.5 -45.5t-15.5 -39t-11.5 -28.5q52 6 92 10l34 2t30.5 0.5t22 -2t9.5 -5.5zM340 934q4 10 20.5 20t36 15.5t36 5t21.5 -10.5q20 -49 44 -120.5t48.5 -154.5t49 -170.5t47 -167.5t41.5 -146.5t33 -107.5q6 -17 -10 -30.5
t-38 -20t-43 -6t-26 11.5q-10 21 -21.5 56.5t-23.5 76.5t-24 83t-21 76t-15 55.5l-6 21.5q-9 -1 -29.5 -0.5t-45.5 1t-52 1.5t-49.5 1.5t-37.5 -0.5t-16 -3q-9 -24 -26.5 -71.5t-37 -101.5t-38 -105.5t-30.5 -82.5q-3 -10 -22.5 -17.5t-40.5 -10.5t-36.5 1.5t-10.5 18.5
q12 42 36 110t54 149t64 169.5t65.5 172.5t58.5 157t45 124z" />
    <glyph glyph-name="B" unicode="B" horiz-adv-x="658" 
d="M167 412l4 -280q86 2 154 13q29 5 56 12t48 17.5t33.5 25t11.5 33.5q-3 45 -18 77t-37 53.5t-49.5 33.5t-55.5 17q-66 12 -147 -2zM195 823l-26 -312q86 14 153 36q28 9 55 21t47.5 27t32 33t9.5 39q-5 45 -19 75t-34 49.5t-44 29.5t-48 13q-57 8 -126 -11zM569 726
q2 -44 -6 -78t-22 -59.5t-33.5 -43t-39.5 -29.5q-48 -27 -109 -33q80 -16 137 -56q24 -17 46 -41t36 -56t18 -73.5t-7 -93.5q-5 -20 -29.5 -37t-61.5 -30.5t-83.5 -24t-94 -17.5t-93 -10.5t-81.5 -4t-58 2.5t-23 10q-8 43 -13.5 111t-7.5 148t0 165.5t10.5 163.5t23.5 142.5
t39 101.5q22 35 63.5 48.5t91 10.5t101 -21t94.5 -47t71.5 -67.5t30.5 -81.5z" />
    <glyph glyph-name="C" unicode="C" horiz-adv-x="605" 
d="M466 893q40 2 54 -13t9 -35t-24.5 -39t-45.5 -25q-63 -14 -113.5 -47t-86 -76t-56 -92.5t-23.5 -96.5q-4 -58 20 -111t68 -95.5t104.5 -71t131.5 -35.5q26 -3 30.5 -21t-3.5 -39.5t-25 -39t-34 -18.5q-55 -3 -110 12.5t-105 45.5t-92 73t-70.5 94.5t-40.5 110t-2 119.5
q12 74 50 144.5t94 126t125.5 90.5t144.5 39z" />
    <glyph glyph-name="D" unicode="D" horiz-adv-x="555" 
d="M187 828l4 -658q56 -6 102 16q19 9 38.5 25.5t35 42t26 62.5t13.5 87q3 62 -4.5 113t-22 92.5t-34.5 74t-41 56.5q-50 57 -117 89zM180 936q17 -4 45 -15t60 -31.5t66.5 -52t65.5 -76t55.5 -104.5t38.5 -137q19 -107 10 -185t-36 -132.5t-68 -89t-87 -53.5
q-107 -46 -256 -32q-5 185 -6 351v145t2 142t6 126.5t10 99.5q2 13 14.5 22t28 14.5t30 7t21.5 0.5z" />
    <glyph glyph-name="E" unicode="E" horiz-adv-x="542" 
d="M434 979q15 6 24 -13t10 -44.5t-5.5 -49.5t-21.5 -29q-52 -18 -91 -39.5t-68 -43t-48.5 -43.5t-32.5 -42q-30 -47 -33 -94q58 -1 112 -2q22 -1 46 -1.5t46 -1.5t40.5 -2.5t31.5 -3.5q19 -3 21 -16t-6 -27t-23 -25t-30 -10q-23 1 -63.5 1.5t-79.5 1.5q-47 1 -97 1
q-2 -39 4 -75q5 -31 18 -62.5t41 -51.5q47 -33 109.5 -63t137.5 -61q11 -5 15.5 -18t3 -28.5t-9 -31t-19.5 -27t-28 -15.5t-35 4q-31 13 -64.5 27t-66.5 29t-62.5 32t-53.5 37q-21 17 -46 42.5t-45.5 66.5t-31.5 100.5t-3 144.5q6 65 22 124t58.5 112.5t119 102.5t204.5 94z
" />
    <glyph glyph-name="F" unicode="F" horiz-adv-x="592" 
d="M537 900q28 -3 38 -12.5t8.5 -21.5t-12 -25t-24 -23.5t-27 -16.5t-21.5 -5q-41 7 -95 12.5t-103 10.5q-57 5 -116 9l4 -339q43 0 82 1q33 1 66.5 1.5t53.5 0.5q37 0 48 -14t4 -30.5t-29 -30.5t-52 -15q-17 -1 -45 -1h-57q-33 0 -70 1q-2 -63 -4 -119q-1 -24 -2 -49
t-2 -48.5t-2 -44t-2 -35.5q-1 -13 -12.5 -22t-28 -15t-35 -7t-33.5 3t-24 13.5t-7 25.5q8 61 8.5 153t-2 199.5t-5.5 222t-1 220.5q0 21 36.5 28.5t102 6t157.5 -11t203 -22.5z" />
    <glyph glyph-name="G" unicode="G" horiz-adv-x="645" 
d="M563 882q11 -8 1.5 -24.5t-29 -31.5t-43 -24.5t-40.5 -4.5q-59 18 -103.5 6.5t-76 -40.5t-52 -69.5t-33 -80.5t-17.5 -72.5t-6 -46.5q-3 -36 7 -84.5t31.5 -98t52.5 -93t70 -70.5q18 -13 35 -7t31.5 23.5t26.5 43.5t21 53.5t15 52.5t8 42q2 18 1 43t-9.5 48t-26.5 39
t-50 16h-84q-37 0 -42 13t7.5 29t34.5 29t40 13q28 0 57 2t56 -1.5t52 -15.5t46 -39q17 -23 24.5 -57t9 -70t-1 -71t-4.5 -61q-6 -69 -39 -124.5t-82.5 -86.5t-110 -32.5t-121.5 39.5q-47 31 -82 78t-57 103t-31 118.5t-5.5 126.5t20 126t45.5 117q31 58 84 103.5t116 68.5
t129.5 18.5t124.5 -46.5z" />
    <glyph glyph-name="H" unicode="H" horiz-adv-x="536" 
d="M70 856q1 18 20 36t41 29.5t39.5 14t17.5 -10.5q-1 -21 -1.5 -51t-1.5 -64t-1.5 -71t-1.5 -72q-2 -83 -3 -173q8 7 36.5 8t59.5 0q36 -2 78 -6q-1 13 -2 39.5t-1.5 59.5t-0.5 70.5v74t1 68.5t3 55q1 15 21.5 29.5t44 24t43 10.5t19.5 -12q-2 -49 -0.5 -113.5t3.5 -136.5
t4 -147.5t2.5 -145.5t-1.5 -130.5t-8 -102.5q-4 -25 -26 -39t-47 -18t-44.5 1t-17.5 18t3.5 34t2.5 46t2 52t1 54q1 62 1 132q-50 7 -89 11q-17 1 -33 2t-28.5 1t-20 -2t-7.5 -5q1 -26 1 -64v-79v-78.5t-1 -61.5q0 -14 -19 -32t-42 -31.5t-42 -18.5t-19 9q0 67 -0.5 159
t0 196t3.5 215t11 216z" />
    <glyph glyph-name="I" unicode="I" horiz-adv-x="263" 
d="M69 874q-1 12 19.5 20t45 11.5t45.5 1.5t21 -11q5 -119 4 -216.5t-4 -190.5t-6 -190.5t-3 -216.5q0 -12 -20.5 -20.5t-45 -11.5t-45 -0.5t-20.5 10.5q1 119 4.5 216.5t6.5 190.5t3.5 190.5t-5.5 216.5z" />
    <glyph glyph-name="J" unicode="J" horiz-adv-x="616" 
d="M513 852q1 -103 7.5 -191.5t11 -174t4.5 -174.5t-12 -192q-4 -35 -27 -50t-52 -17q-90 -8 -181 8.5t-169 39.5q-10 3 -22 13.5t-23 24.5t-19 30t-9.5 29.5t5.5 23t26 10.5q27 1 55 -10t56 -25t56 -26.5t55 -15.5q51 -5 80 -3.5t43 16t16.5 44t1.5 79.5q-2 87 -4 158
t-4 138.5t-4 138.5t-3 158q0 13 17.5 16t38.5 -2t38.5 -17t17.5 -29z" />
    <glyph glyph-name="K" unicode="K" horiz-adv-x="528" 
d="M184 511l76 12q19 -14 31.5 -34t21.5 -43t17.5 -46.5t20.5 -44.5q30 -52 60 -103t68 -102q3 -4 -13.5 -11t-38 -12.5t-42 -7t-26.5 6.5q-38 51 -75.5 109t-62.5 112q-11 23 -17 31t-21 3zM227 517q-13 -2 -25.5 -4t-17.5 -2l3 132q8 14 11 19.5t4 6.5t0.5 0t0.5 1t4.5 8
t11.5 22q23 42 50 81t47 81q7 15 29 21.5t44.5 5.5t37 -11t5.5 -28q-13 -27 -24.5 -50t-23.5 -44.5t-24 -44t-25 -47.5q-11 -21 -18.5 -38.5t-15.5 -34t-17.5 -33t-23.5 -35.5zM55 877q-2 12 16.5 21.5t41 13.5t42 1.5t20.5 -12.5q11 -101 12.5 -202t-0.5 -201.5t-5 -201.5
t0 -202q0 -13 -18.5 -22t-41 -13t-41.5 -1.5t-19 12.5q-3 101 -0.5 202t4.5 201.5t0.5 201.5t-11.5 202z" />
    <glyph glyph-name="L" unicode="L" horiz-adv-x="597" 
d="M83 921q0 17 17.5 29t38.5 17t38.5 2t17.5 -16q-1 -87 -4 -169t-6.5 -162.5t-7 -162.5t-5.5 -169q-2 -50 1 -74.5t16.5 -32.5t42.5 -4.5t80 8.5q54 5 105 0.5t105 -6.5q28 -2 31 -22.5t-8 -45t-30.5 -44t-34.5 -19.5q-85 2 -169 -1.5t-168 3.5q-29 2 -52 17t-27 50
q-12 103 -11 202.5t7 198.5t13.5 198.5t9.5 202.5z" />
    <glyph glyph-name="M" unicode="M" horiz-adv-x="841" 
d="M66 898q9 27 35 34t66 -13.5t92.5 -71t112.5 -137.5q-3 41 -7 76q-3 30 -5.5 60t-1.5 44q0 13 20 21t44 9t45.5 -6.5t25.5 -25.5q3 -15 4 -43t2 -55q1 -33 1 -68q34 43 65 82q13 16 26.5 33.5t25.5 33.5t22 29.5t16 22.5t25 19.5t39 16.5t36 6t18 -11q7 -50 11 -120
t6 -150t3 -164.5t1 -162.5t0.5 -145t2.5 -111q0 -12 -8.5 -21t-22.5 -14.5t-30 -7.5t-30 0.5t-23 9t-9 17.5q1 32 1 77.5t-0.5 98t-1.5 109t-2 110.5q-3 127 -6 267q-29 -40 -59 -73q-26 -28 -55 -53t-54 -30q1 -97 1.5 -163t0.5 -111v-73.5t-1 -50t-3 -40.5t-4 -45
q-1 -8 -19.5 -17.5t-40.5 -15t-40.5 -4.5t-18.5 15q0 28 0.5 76t1 104t1 113.5t1 104t-0.5 76t-2 30.5q-12 4 -27.5 13t-33 21.5t-35.5 27.5t-35 30q-40 35 -82 78q5 -148 9 -276q2 -55 4 -111t4.5 -107t5 -92.5t4.5 -66.5q1 -17 -17 -30.5t-41 -20t-43 -4t-21 16.5
l-9 130.5t-9 151t-6 158.5t-1 153t7 134t19 102z" />
    <glyph glyph-name="N" unicode="N" horiz-adv-x="656" 
d="M47 900q-2 10 11.5 18t32.5 12t37.5 2t26.5 -11q15 -17 36.5 -41t45.5 -51.5t50 -57t51 -57.5q58 -66 122 -139q-4 68 -8 130q-2 26 -4 53t-4 52t-4 45.5t-4 34.5q-1 7 6.5 14t19 13t25.5 10t26.5 5.5t21 -1t10.5 -9.5q6 -26 12.5 -80t12 -124.5t10 -152t7.5 -162.5
t3.5 -156.5t-2.5 -133.5q-1 -12 -18 -22.5t-37 -16t-37 -5t-17 11.5q0 13 -0.5 34t-1.5 45.5t-1.5 51.5t-0.5 53q-2 61 -3 130q-67 73 -124 135l-50 54t-47.5 51t-40.5 42.5t-29 29.5q12 -124 18 -238q3 -49 4.5 -101t0.5 -101.5t-4 -94.5t-9 -79q-2 -12 -19.5 -23
t-37.5 -16.5t-36 -3.5t-15 17q9 105 9.5 216t-5 219.5t-16.5 210t-24 187.5z" />
    <glyph glyph-name="O" unicode="O" horiz-adv-x="604" 
d="M261 781q-28 -8 -50 -47t-35 -96t-16.5 -124t5 -130t29.5 -115t56 -79q8 -6 25.5 -7t38 5.5t39.5 20t31 36.5q27 53 39.5 109.5t16 107t0.5 89.5t-7 57q-8 34 -26 68t-42 59.5t-51 39t-53 6.5zM565 596q12 -94 9 -173t-27.5 -146t-73.5 -124t-129 -108q-14 -9 -39 -10.5
t-52.5 2.5t-51.5 12t-35 18q-35 33 -60.5 86.5t-40.5 119.5t-19.5 139.5t2 145t24.5 137t47.5 115.5t70.5 80t95 31q55 1 102.5 -25.5t84 -71t61 -104t32.5 -124.5z" />
    <glyph glyph-name="P" unicode="P" horiz-adv-x="543" 
d="M199 834l7 -382q59 33 104 68q19 15 37 31.5t31 34t19.5 35t3.5 34.5q-14 63 -46.5 99t-67.5 54q-40 21 -88 26zM509 670q4 -36 -7 -69.5t-31 -64t-47.5 -57.5t-56.5 -49q-69 -53 -158 -97q0 -58 1 -109q1 -44 1 -87v-65q0 -16 -19 -27.5t-41 -14t-40 6.5t-18 35
q1 46 0 115t-2.5 149t-3.5 164t-4 159.5t-3 136.5t-1 94q0 24 30 33.5t76 4.5t100 -24t101.5 -51.5t82 -78.5t40.5 -104z" />
    <glyph glyph-name="Q" unicode="Q" horiz-adv-x="763" 
d="M363 750q-61 -50 -91.5 -116t-37 -133.5t8 -129.5t42.5 -105t67 -60t81 6q9 5 4 16.5t-9.5 26.5t-0.5 32.5t32 33.5q22 12 35.5 8t21.5 -12.5t12 -15t7 -0.5q11 25 11.5 75t-8 108.5t-25 117t-39.5 100t-51 58t-60 -9.5zM672 534q8 -41 8 -88t-7 -92.5t-20.5 -85.5
t-32.5 -67q-8 -12 -2 -23.5t16 -23.5t20 -24.5t10 -25.5q0 -9 -4.5 -20t-13 -21.5t-20.5 -18t-26 -9.5q-21 -2 -40 7t-33 20q-17 13 -30 31q-19 -7 -39 -14.5t-45 -12t-55.5 -4t-70.5 8.5t-69.5 31.5t-51.5 55.5t-37 70.5t-24.5 76.5t-15 73.5t-7.5 61.5q-3 34 3.5 79.5
t22 94.5t40 98t58 89.5t75.5 68t92 35.5q38 6 70.5 6.5t59.5 -9.5t50 -34t43.5 -67.5t39 -108.5t36.5 -158z" />
    <glyph glyph-name="R" unicode="R" horiz-adv-x="623" 
d="M220 814l-30 -278q47 35 84 71q15 15 30 32t26 34.5t17 35t4 33.5q-4 32 -25 48t-44 21q-28 6 -62 3zM349 912q52 -25 79.5 -55t36.5 -61.5t3.5 -63.5t-19.5 -62q-33 -70 -108 -143q55 -88 103 -165q20 -33 41 -67t39.5 -65t33.5 -57t24 -42q12 -22 -1 -39t-34.5 -25.5
t-43 -8t-27.5 13.5q-36 75 -68 131.5t-59 98.5t-50 70.5t-41 46.5q-43 43 -73 48q0 -81 1 -152q0 -30 1 -61.5t2 -59t2.5 -50.5t4.5 -37q4 -20 -14 -34t-41 -19.5t-44 0t-23 25.5q-5 50 -9 118.5t-6 145t-0.5 156t7.5 152.5t17 134t28 100q3 7 18 14t37 12t48 8t51.5 4
t47.5 -1.5t36 -9.5z" />
    <glyph glyph-name="S" unicode="S" horiz-adv-x="515" 
d="M215 806q29 32 61.5 20.5t48.5 -59.5q19 18 30 36q8 15 6.5 32.5t-26.5 32.5q-15 9 -40.5 12.5t-52 -1t-49.5 -18.5t-33 -40q-9 -23 -10.5 -41t3 -34.5t15 -33t25.5 -37.5q21 -28 51 -50t61.5 -42.5t60.5 -43t46 -51.5q21 -36 36.5 -78.5t23 -87t5 -88.5t-18 -82.5
t-47 -68.5t-80.5 -46q-52 -17 -107.5 -3t-100.5 50q-20 16 -37 40.5t-27 52t-11.5 56.5t9.5 54t30 46t43.5 35.5t53 19.5t58.5 -2q36 -9 58.5 -27t33 -41t9 -48.5t-14.5 -49.5q-10 -18 -35 -26.5t-49 -8t-39 11t-4 31.5l21 40q1 34 -13 37.5t-43 -12.5q-5 -9 -9 -20
t-6.5 -23t-2.5 -24t4 -22q6 -16 22 -32.5t37.5 -27.5t46.5 -13.5t48 9.5q42 22 61.5 47t22.5 54.5t-7 64t-26 75.5q-14 34 -48 63.5t-73.5 57t-77 54.5t-58.5 56q-20 26 -36 59t-23 68t-2 70t28 65q19 24 49 44t65 32t72 15.5t70 -3.5q26 -6 51.5 -17t45 -28t29.5 -41.5
t6 -57.5q-4 -29 -16.5 -55.5t-31.5 -46t-43.5 -31t-51.5 -9.5q-26 1 -51.5 14t-41.5 31.5t-19 41t15 43.5z" />
    <glyph glyph-name="T" unicode="T" horiz-adv-x="784" 
d="M121 929q14 2 45 2.5t63 1.5q37 1 78 2q95 2 175 4q34 1 68.5 1h64h51.5t33 -1q7 -1 18.5 -11t17.5 -23t1.5 -25.5t-28.5 -18.5q-25 -6 -69 -9t-89 -5q-52 -2 -110 -1q5 -197 9 -357q1 -68 2.5 -135t2 -122.5t0 -94t-1.5 -49.5q-2 -14 -21 -21t-41.5 -8t-41.5 3.5
t-21 14.5q-4 16 -6.5 57.5t-5 98.5t-3.5 124.5t-2 135.5q-2 159 -2 351q-48 1 -92 3q-38 2 -76 2.5t-59 0.5q-30 -1 -41.5 4.5t-10 14t12.5 18.5t25.5 19t29.5 15.5t24 7.5z" />
    <glyph glyph-name="U" unicode="U" horiz-adv-x="705" 
d="M65 872q1 15 20.5 26t43 15.5t42.5 3t19 -11.5q-5 -126 -12.5 -247.5t-12.5 -247.5q-1 -30 -2 -51t-1.5 -40.5t-1 -40.5t-0.5 -52q0 -32 27.5 -47.5t65 -21.5t75 -6.5t57.5 -1.5q58 -4 86 7t37 31.5t6.5 47t-4.5 53.5q-2 31 -2.5 75.5t-1 91.5t-0.5 91.5v76.5
q-1 41 -2 71t1 58t8 57.5t20 69.5q4 13 23 23.5t40 15.5t37 2.5t15 -14.5q-6 -57 -8.5 -119.5t-2.5 -126.5t0.5 -126.5t0.5 -118.5q0 -22 3 -65t4.5 -90.5t-2 -90t-15.5 -63.5q-17 -28 -55.5 -43.5t-88.5 -21.5t-106.5 -4.5t-109.5 6t-97 10l-68 8.5q-2 0 -12 6t-21.5 16.5
t-20.5 26t-9 35.5q0 100 2 188.5t5.5 175t8 175t9.5 188.5z" />
    <glyph glyph-name="V" unicode="V" horiz-adv-x="646" 
d="M21 879q-7 8 1.5 21t23 23.5t30.5 14t23 -6.5q60 -85 98.5 -177t67.5 -192q14 -48 21.5 -72.5t11.5 -37.5t6.5 -20.5t6.5 -20t11.5 -36.5t21.5 -71q7 30 11.5 46t6.5 23.5t2.5 9t0.5 2.5t0.5 4t2.5 13.5t6 30t11 54.5q3 15 11.5 53.5t19 87t22 100.5t21.5 95.5t16.5 71.5
l6.5 28q4 12 18 18t31 8.5t34 1t27 -5.5q1 0 1.5 -0.5t2.5 -0.5q5 -2 8 -6t1 -10q-13 -38 -31.5 -100.5t-39 -137.5t-41 -156.5t-37.5 -157t-29 -139.5t-15 -104q-1 -14 -16 -25.5t-34 -17.5t-36 -5t-21 13q-18 47 -32 84.5t-25.5 69.5t-21 62t-20 62t-22 68.5t-26.5 82.5
q-30 93 -60 179.5t-77 172.5z" />
    <glyph glyph-name="W" unicode="W" horiz-adv-x="1064" 
d="M177 820q11 25 40.5 36.5t59 11t49.5 -12t12 -30.5q-30 -72 -58 -144t-42 -144.5t-8 -146t44 -149.5q6 -11 8.5 -16.5t5 -10t5.5 -10t10 -16.5q9 16 19.5 35l21 38t20.5 35.5t17 27.5q18 27 27 44.5t14.5 30.5t10.5 24.5t15 27.5q20 32 29 47.5t15.5 14t15 -19.5
t28.5 -53q18 -32 44 -63.5t55 -61.5t60 -57.5t60 -50.5l45 -37q3 4 6 14q2 7 4.5 18t4.5 27q9 76 -4 152.5t-38.5 151.5t-59 147t-67.5 138q-9 18 7 36t41.5 27.5t52.5 6t41 -29.5q26 -49 58.5 -117.5t59.5 -146t43.5 -157.5t11 -153t-38.5 -132.5t-105 -95.5
q-33 -17 -65.5 -12.5t-62.5 22t-57 44t-49.5 53t-39.5 49t-27 32.5q1 2 -3 -11.5t-15 -34t-29.5 -45t-47 -45.5t-67.5 -34.5t-91 -12.5q-48 1 -78 31t-47.5 73t-25 91t-9.5 86q-3 66 -1.5 126.5t9.5 118.5t24 115.5t42 117.5z" />
    <glyph glyph-name="X" unicode="X" horiz-adv-x="744" 
d="M107 801q-12 19 0 35.5t33 25.5t43 9.5t29 -12.5q9 -16 21 -36.5t25.5 -42.5t27.5 -45t28 -44q32 -50 66 -104q35 54 66 102q13 21 26.5 42.5t25.5 42t22.5 38.5t16.5 31q3 6 14 11.5t25.5 9t29.5 4t25 -4t13 -15.5t-7 -29q-8 -14 -20 -35.5t-27.5 -47t-32.5 -54
t-33 -55.5q-39 -64 -82 -136q54 -77 102 -145q20 -29 40.5 -58.5t39 -56t33 -48t23.5 -33.5q10 -15 -1 -30.5t-29.5 -26.5t-38 -14t-26.5 7q-13 18 -29.5 40.5t-34.5 47.5t-36.5 50.5t-35.5 49.5q-41 56 -84 115q-31 -50 -59 -99q-24 -42 -50 -89t-42 -83q-9 -21 -32.5 -27
t-46 -3t-37 13t-6.5 21q56 81 94.5 146.5t63.5 112.5q29 55 47 98q-37 63 -71 123q-15 25 -30.5 52.5t-31.5 53.5t-30.5 50t-26.5 43z" />
    <glyph glyph-name="Y" unicode="Y" horiz-adv-x="706" 
d="M46 844q-4 10 8 21t31 17t39 4.5t31 -16.5q12 -17 26 -40t29 -49.5t29.5 -55t28.5 -55.5q32 -63 65 -132q50 75 92 143q18 29 36 59t34 57.5t29 51.5t20 41q8 18 28.5 24t41.5 4t35 -10t10 -18q-39 -88 -83 -168.5t-82 -143.5q-44 -73 -87 -138v-136v-57t0.5 -56.5
t0.5 -51.5v-42q0 -19 -19.5 -32t-43.5 -17.5t-45 0.5t-24 23q-3 15 -2 44.5t3 65.5t4.5 75.5t2.5 74.5t-3 62t-12 38q-6 8 -22 34t-36.5 63t-44.5 81t-47 87t-42 82t-31 66z" />
    <glyph glyph-name="Z" unicode="Z" horiz-adv-x="651" 
d="M114 849q-33 0 -36 15.5t10 34.5t35 34.5t40 15.5q44 0 89.5 -4l91 -8t90.5 -5t89 4q7 1 19.5 -1.5t23 -8.5t14.5 -16t-5 -26q-41 -71 -75.5 -147t-76.5 -146q-36 -61 -66 -110.5t-57.5 -96.5t-54.5 -96.5t-57 -110.5q41 -5 61.5 -6.5t34.5 -0.5t27.5 4t41.5 7t77 9
t133 10q32 2 35.5 -13t-9.5 -34t-35 -35.5t-40 -17.5q-64 -3 -116.5 -10.5t-102.5 -13.5t-102.5 -7.5t-116.5 6.5q-7 1 -16 4t-15.5 9.5t-8.5 16t5 23.5q62 123 130 236t133 233q19 36 32.5 64t25.5 53.5t26 52.5t35 62q-49 -6 -85 -3.5t-69.5 7.5t-69.5 10.5t-85 5.5z" />
    <glyph glyph-name="bracketleft" unicode="[" horiz-adv-x="388" 
d="M189 976q5 1 19 2t30.5 0.5t33.5 -2t28.5 -6t15 -12t-6.5 -19.5q-13 -15 -36.5 -23t-48 -16.5t-46 -22t-30.5 -40.5q-25 -75 -30 -160.5t0 -166.5q7 -116 13.5 -197.5t25 -129t55 -62.5t104.5 3q5 1 8 -13t-1.5 -31.5t-18 -32.5t-41.5 -15q-20 0 -43.5 1t-46 9.5
t-42 27.5t-32.5 55q-17 46 -26 105.5t-13.5 123t-5.5 126.5t-1 116q1 169 34 264.5t102 115.5z" />
    <glyph glyph-name="backslash" unicode="\" horiz-adv-x="579" 
d="M428 93q-29 30 -52 71.5t-42.5 87t-37.5 92t-37 88.5q-25 55 -53 106.5l-56 103t-54.5 104.5t-48.5 110q-14 36 0 54t39.5 17t54 -21t43.5 -58q18 -48 40.5 -91.5t46 -85.5t47 -84.5t44.5 -87.5l86 -189q8 -18 16.5 -41t17.5 -45.5t19.5 -43t23.5 -34.5q19 -20 22.5 -35
t-3.5 -25t-22 -14.5t-32 -3.5t-34 7t-28 18z" />
    <glyph glyph-name="bracketright" unicode="]" horiz-adv-x="388" 
d="M209 970q69 -21 101.5 -116t34.5 -265q0 -53 -1 -116t-5.5 -126.5t-14 -122.5t-25.5 -105q-13 -37 -32.5 -56t-42 -27.5t-46 -9t-43.5 -0.5q-28 0 -41.5 15t-18 32t-1.5 31t8 13q68 -18 104.5 -3t54.5 62.5t24.5 129t14.5 197.5q5 81 -0.5 166.5t-29.5 160.5
q-9 27 -30.5 40.5t-46.5 22.5t-48 16.5t-36 22.5q-10 11 -6 19t15.5 12.5t28 6.5t33 2.5t30.5 -0.5t19 -2z" />
    <glyph glyph-name="asciicircum" unicode="^" horiz-adv-x="571" 
d="M49 676q20 34 44 76.5t51.5 82t59.5 71t68 43.5q20 7 37 1.5t31.5 -18t27.5 -30t26 -33.5q33 -42 65.5 -79t61.5 -82q9 -14 6.5 -36t-11 -39.5t-21.5 -24t-25 11.5q-35 54 -79 107.5t-89 98.5q-16 16 -36.5 9.5t-42 -27.5t-43 -51t-40 -60.5t-32.5 -56t-21 -37.5
q-14 -24 -25 -21.5t-17 18t-5.5 38t9.5 38.5z" />
    <glyph glyph-name="underscore" unicode="_" horiz-adv-x="647" 
d="M297 58q-21 1 -42 1.5t-42 -0.5q-12 -4 -28.5 -7.5t-33.5 -5.5t-34.5 -1.5t-30.5 5.5q-14 4 -16 11t2.5 14t13 13t16.5 9q48 19 100 25.5t105 6.5t106.5 -3t105.5 -3q8 0 19 -1.5t19.5 -5.5t10.5 -10.5t-7 -16.5q-9 -9 -22 -16t-28 -11.5t-30.5 -6t-28.5 -1.5z" />
    <glyph glyph-name="grave" unicode="`" horiz-adv-x="350" 
d="M215 923q7 -21 9.5 -36t4.5 -29t5.5 -29.5t12.5 -37.5q4 -11 13 -23.5t16.5 -24t11.5 -20t-2 -11.5q-20 -13 -43.5 -19t-43.5 -2q-29 6 -46.5 27t-29 48.5t-19 58t-15.5 54.5q-8 26 7.5 45.5t39 27.5t47.5 2t32 -31z" />
    <glyph glyph-name="a" unicode="a" 
d="M253 526q-18 -13 -30 -38.5t-19 -57.5t-10 -68t-2 -70t5 -63.5t10 -48.5q7 -23 28.5 -32t45 -8t43 10t22.5 21t6.5 40.5t6.5 64.5t5.5 75t4.5 72t3.5 56t2.5 26q1 4 -14.5 10.5t-36.5 11t-41.5 5.5t-29.5 -6zM373 70q-26 -7 -65 -15t-81.5 -8.5t-83.5 10.5t-69.5 43
t-39.5 89t6 149q18 97 50 154.5t70 87.5t77 38t70.5 7.5t51.5 -4.5t20 1t3.5 26.5t2.5 48t-10 54t-34 44t-70 18t-118 -23.5q-3 -1 -11 0t-17 4t-16 8t-6.5 12t11 15.5t36.5 19.5q14 5 46.5 15t72.5 16t83 5t78.5 -16.5t58.5 -49t23 -92.5v-112t-1 -123t-3.5 -121
t-6.5 -107.5t-11 -82.5t-16 -45q-15 -17 -41.5 -37t-59.5 -28z" />
    <glyph glyph-name="b" unicode="b" horiz-adv-x="608" 
d="M176 422l3 -259q77 1 138 12q26 4 50.5 11t43.5 16.5t30 22.5t10 31q-3 42 -16 71.5t-33 49t-44.5 30.5t-49.5 16q-59 11 -132 -1zM201 802l-23 -289q77 13 137 33q25 9 49 20t42 25t28.5 30.5t8.5 36.5q-4 41 -16.5 69t-30.5 45.5t-39 27t-43 12.5q-51 8 -113 -10z
M536 712q2 -41 -5 -72t-20 -54.5t-30 -39.5t-35 -27q-43 -26 -99 -31q72 -15 123 -52q22 -16 41.5 -38t32 -52t16 -68t-6.5 -86q-4 -19 -26 -34.5t-55 -28t-74.5 -22t-84.5 -16t-83.5 -10t-72.5 -3.5t-52 3t-21 9q-7 39 -11.5 101.5t-6.5 136.5t0 153t9.5 151.5t21 132
t34.5 93.5q20 32 57 44.5t81.5 10t91 -19.5t84.5 -43.5t63.5 -62t27.5 -75.5z" />
    <glyph glyph-name="c" unicode="c" horiz-adv-x="606" 
d="M512 903q34 2 44 -14.5t3.5 -36.5t-27.5 -36.5t-49 -14.5q-18 1 -51.5 3t-68 2.5t-63.5 -2.5t-39 -12q-27 -25 -41.5 -55.5t-21.5 -62t-10.5 -60.5t-7.5 -50q-3 -14 -5 -42.5t-1.5 -63.5t5 -72.5t14.5 -69t27.5 -53t44.5 -24.5q35 -4 56 -9t39 -7t38.5 -0.5t55.5 10.5
q30 8 49 3.5t28.5 -16t9.5 -27.5t-8 -32t-23 -28.5t-36 -17.5q-23 -5 -54.5 -11t-67.5 -8.5t-73 -1t-72 10.5t-64.5 27t-49.5 48q-27 41 -39.5 102.5t-15 127t2 126.5t10.5 101t10.5 73t15 61t31.5 51.5t59 43.5q54 28 97 38t82.5 10.5t79 -4.5t86.5 -7z" />
    <glyph glyph-name="d" unicode="d" horiz-adv-x="597" 
d="M187 812l5 -600q62 -5 112 15q21 9 42 23.5t38.5 38t29 57t14.5 79.5q4 56 -4.5 102.5t-24.5 84.5t-38 67.5t-46 51.5q-55 52 -128 81zM180 911q19 -4 49 -14t65.5 -28.5t73.5 -47t72 -69.5t61.5 -95t42.5 -125q21 -98 11 -169t-40 -121t-75 -81t-95 -49
q-118 -41 -283 -29q-5 169 -6 320q0 64 0.5 131.5t2.5 130t6.5 116t11.5 90.5q2 12 15.5 20.5t30.5 13t33 6t24 0.5z" />
    <glyph glyph-name="e" unicode="e" horiz-adv-x="609" 
d="M498 925q18 5 31 -9.5t17.5 -35t0 -40.5t-20.5 -27q-72 -30 -124.5 -56t-89.5 -49.5t-60.5 -43.5t-37.5 -36q-33 -39 -26 -68q69 0 131 -1q26 0 53.5 -1t53 -2t47.5 -2.5t37 -3.5q22 -3 24.5 -14.5t-6.5 -24t-26.5 -22.5t-35.5 -10q-13 0 -32 0.5t-41 1t-46 1t-47 0.5
q-54 1 -114 1q-3 -35 4 -68q6 -28 21.5 -57.5t48.5 -47.5q54 -30 127.5 -57.5t160.5 -56.5q20 -7 22 -28.5t-11 -42t-38 -33t-59 -1.5q-36 12 -82.5 29.5t-93 37.5t-88.5 40.5t-68 39.5q-23 17 -46 39.5t-38 55.5t-18.5 78.5t10.5 107.5q9 38 19 75.5t28 73.5t47.5 70
t78 66.5t118.5 62.5t169 58z" />
    <glyph glyph-name="f" unicode="f" horiz-adv-x="589" 
d="M501 905q23 -2 31.5 -10.5t7 -20.5t-10.5 -26t-20 -25.5t-22.5 -19t-18.5 -7.5q-34 0 -78 2.5t-84 4.5q-47 3 -96 6l12 -310q39 -1 73 -1q29 0 59 1.5t45 6.5q29 8 38 -5t3.5 -31.5t-23.5 -35.5t-42 -18q-14 -1 -39.5 -1t-50.5 -1q-30 -1 -62 -1q-3 -67 -7 -128
q-2 -26 -3 -52.5t-2.5 -51.5t-2.5 -46t-2 -35q-2 -18 -21 -29.5t-41 -13.5t-39 7.5t-14 33.5q4 40 6 94.5t1.5 118.5t-2 136t-3 146t-2.5 148.5t0 144.5q0 20 29.5 28t83 8.5t129 -5t168.5 -12.5z" />
    <glyph glyph-name="g" unicode="g" horiz-adv-x="651" 
d="M472 835q12 -1 22.5 -7.5t16.5 -15t6.5 -18t-8.5 -16.5q-21 -20 -37 -27t-42 -3q-8 1 -29.5 3t-49 2.5t-57 0t-54 -5t-40.5 -13.5t-16 -24q0 -21 -1.5 -36t-3 -29.5t-2.5 -29.5t-1 -36q0 -25 -1.5 -73.5t1 -101t13 -97.5t34.5 -63q24 -17 43.5 -26t39 -12t41 -2.5
t49.5 1.5q42 2 63 26.5t32 63.5q6 24 11 43.5t1.5 33t-18.5 19.5t-48 3q-13 -1 -19 -1t-10 0.5t-9.5 0.5h-18.5q-38 -2 -53 12t-14 31t15 31.5t34 15.5q30 1 59 4.5t57 2t55 -10.5t51 -32q17 -16 23 -48.5t4.5 -68.5t-8.5 -69.5t-15 -51.5q-15 -36 -47 -59t-73.5 -35.5
t-88 -15.5t-91 1t-83 13.5t-62.5 23.5q-10 6 -22.5 16.5t-25.5 31.5t-23.5 53.5t-16.5 81.5q-5 37 -6 82.5t0.5 95t4.5 100.5t7 99q4 47 27 76.5t57.5 45.5t77.5 21.5t87.5 5t86.5 -5t75 -7.5z" />
    <glyph glyph-name="h" unicode="h" horiz-adv-x="594" 
d="M87 698q1 19 21 38t43 32t42 15.5t19 -11.5q-2 -46 -3 -99t-3 -98q-2 -53 -4 -105q9 8 39 9t62 -1q38 -2 83 -6q-3 43 -3.5 101t4.5 132q1 16 22.5 31.5t47 25.5t46 11t20.5 -12q-3 -78 1 -152t7.5 -144.5t3.5 -139t-10 -136.5q-4 -27 -28 -42t-50 -19.5t-47 1t-19 19.5
q4 29 5.5 73.5t1.5 86.5q0 48 -1 101q-53 7 -94 11q-18 1 -35 2.5t-30 1.5t-21 -1.5t-8 -5.5q1 -55 4 -113t1 -111q0 -10 -10 -22t-24 -23.5t-31 -22t-31 -16t-23.5 -4.5t-9.5 10q0 72 -1 130t-1 121t3 141t11 191z" />
    <glyph glyph-name="i" unicode="i" horiz-adv-x="281" 
d="M60 812q-2 28 15.5 50t39.5 32t41.5 5t21.5 -31q4 -53 3.5 -105t-2.5 -104t-4.5 -104.5t-1.5 -104.5q0 -39 2 -70t3.5 -61t2 -61t-1.5 -69q-2 -26 -21 -45t-41.5 -25t-40.5 3.5t-16 39.5q2 38 1 69t-3.5 61t-4 61.5t-0.5 69.5q2 99 7.5 194.5t-0.5 194.5z" />
    <glyph glyph-name="j" unicode="j" horiz-adv-x="431" 
d="M55 219q-15 17 -9 37.5t22 35.5t35.5 19.5t32.5 -10.5t19.5 -23t11.5 -14.5t11 -14.5l18 -24l20 -26t21 -24l3 40q2 17 3 39t1 43q0 88 -3 155t-7 130.5t-9 130.5t-8 155q-1 18 16.5 31t38.5 16t39 -5t19 -31q2 -67 5.5 -113.5t7.5 -89.5t7 -89.5t5 -113.5q1 -41 4 -83.5
t4.5 -85.5t-0.5 -85.5t-11 -82.5q-5 -23 -17 -38t-29 -22t-37.5 -5.5t-41.5 13.5q-60 33 -100 66t-72 69z" />
    <glyph glyph-name="k" unicode="k" horiz-adv-x="528" 
d="M123 829q-1 10 15 18t35.5 11.5t36.5 2t17 -11.5q1 -28 2 -65.5t2 -72.5q1 -40 2 -83q24 41 47 78q19 32 39 64t31 51q4 8 21.5 11t35.5 2t31.5 -5.5t9.5 -12.5q-21 -42 -41.5 -84t-40 -80t-37.5 -70.5t-33 -56.5q7 -5 13 -10q5 -5 11 -10.5t9 -12.5q17 -41 37 -83.5
t40.5 -81t41 -70t38.5 -50.5q7 -7 -5.5 -14.5t-31.5 -12.5t-38 -5.5t-26 6.5q-17 18 -36.5 45.5t-37.5 58.5t-34.5 61.5t-27.5 54.5q-3 5 -11 6t-8 -3q-1 -21 -1 -60.5t0.5 -79t0.5 -72t-2 -39.5q-3 -9 -19 -15.5t-35 -9t-34 -0.5t-15 10q0 41 0.5 100t1.5 126t1.5 137
t0.5 133t-1.5 114t-4.5 81z" />
    <glyph glyph-name="l" unicode="l" horiz-adv-x="509" 
d="M48 866q2 14 15.5 25.5t31.5 18.5t38.5 10t37 0t26.5 -12.5t8 -25.5q-19 -127 -21.5 -251t-1.5 -252q0 -21 -2.5 -53t0.5 -61t14.5 -48.5t38.5 -15.5q21 3 46.5 8t52.5 9.5t53 7t47 0.5q26 -2 38.5 -12.5t14 -24t-6 -29t-20.5 -28t-29.5 -20t-32.5 -6.5q-27 2 -66 -2
t-81 -8t-83.5 -4.5t-74 9t-52.5 31.5t-19 63q2 84 1.5 168t1 168t6.5 168t19 167z" />
    <glyph glyph-name="m" unicode="m" horiz-adv-x="925" 
d="M496 710q5 -4 20 7.5t35 32t43.5 46.5t46 50.5t42 43.5t31.5 26q9 6 27 9t36 3t31.5 -5t15.5 -16q7 -48 11.5 -110.5t7.5 -133t5 -143.5t3.5 -141.5t2.5 -128t3 -101.5q1 -17 -17.5 -27.5t-40.5 -13t-40.5 3.5t-18.5 22q0 30 -0.5 71.5t-1.5 88.5t-2.5 97t-3.5 98
q-4 112 -11 234l-171 -129q1 -54 2 -86.5t1.5 -51.5t1 -29t1 -19.5t0.5 -22.5v-37q0 -12 -10.5 -20t-26.5 -12t-34 -4.5t-34 2.5t-26 8.5t-10 14.5q1 54 2 100.5t1.5 82t0 56t-2.5 22.5q-22 16 -52 36.5t-58 39.5q-33 22 -67 45q-18 -122 -30 -231q-5 -47 -10 -95t-8 -91.5
t-4 -80.5t1 -61q1 -17 -16.5 -29.5t-39 -18.5t-40.5 -4t-20 16q-6 83 -1 186.5t17 206.5t28.5 194t34.5 150q16 52 99.5 14t245.5 -165z" />
    <glyph glyph-name="n" unicode="n" horiz-adv-x="708" 
d="M195 118q2 -15 -17.5 -26t-44 -16t-45.5 -3.5t-22 12.5q-14 117 -14.5 243t9.5 244q3 34 0.5 75.5t-2 82.5t8 78.5t31.5 63.5q7 7 23.5 15.5t35.5 14t36 5.5t25 -10q25 -33 46.5 -72.5t40.5 -81t36.5 -83t35.5 -78.5q6 -13 15.5 -40t21.5 -60t25 -68.5t25 -64.5
t23.5 -47.5t19.5 -18.5q0 24 -0.5 42.5t-0.5 36.5t-0.5 36.5t-0.5 42.5q1 112 3 221t2 221q0 15 20 25.5t44.5 15.5t44.5 3.5t20 -11.5q0 -89 -4 -179t-6 -180.5t0 -180t14 -177.5q8 -57 -15 -85.5t-84 -33.5q-45 -4 -76 23t-53.5 68t-39 86t-31.5 77q-38 79 -70.5 159.5
t-77.5 157.5q-4 -33 -8 -59t-6 -51t-2 -51t3 -60q4 -39 4 -78.5v-78.5t1 -78t6 -77z" />
    <glyph glyph-name="o" unicode="o" horiz-adv-x="689" 
d="M323 676q-29 -6 -53 -32t-40 -64t-23.5 -83.5t-3.5 -90t21.5 -83.5t50.5 -64q18 -14 44.5 -17t53.5 3.5t50 24t34 44.5q18 44 22.5 82t2.5 68.5t-8 54.5t-10 39q-6 22 -19 45.5t-31.5 41.5t-41.5 27t-49 4zM622 565q5 -37 6 -81t-6.5 -88.5t-25 -87.5t-49 -78.5t-78 -61
t-112.5 -34.5q-15 -2 -41 -2.5t-53 1t-51.5 5.5t-36.5 11q-52 29 -81.5 85t-37.5 124t5 141t46 136.5t85.5 110t122.5 62.5q65 15 118.5 -4t93.5 -56.5t64 -87t31 -95.5z" />
    <glyph glyph-name="p" unicode="p" horiz-adv-x="540" 
d="M205 789l14 -313q51 29 90 59q16 13 32 27.5t27 29.5t17 30t3 30q-12 55 -41.5 83t-61.5 40q-37 14 -80 14zM482 665q4 -31 -5 -60t-26.5 -55.5t-41.5 -50t-49 -42.5q-60 -46 -138 -84q-1 -57 -1 -106v-43t-0.5 -41.5t-0.5 -35.5v-25q0 -14 -16.5 -23.5t-35.5 -12
t-34.5 5.5t-15.5 30q0 40 -1 101.5t-3 133.5t-4 148.5t-3.5 144.5t-1 122.5t3.5 83.5q1 10 27 15.5t65 3t85 -14.5t87 -36.5t71 -63.5t38 -95z" />
    <glyph glyph-name="q" unicode="q" horiz-adv-x="647" 
d="M308 670q-57 -35 -84.5 -84t-32.5 -101.5t8.5 -101t39 -83t59.5 -47.5t70 6q7 4 3 14t-8 22.5t-0.5 27t27.5 28.5q18 10 29 6.5t18 -10t10.5 -12.5t5.5 0q9 21 11 59t-3.5 82t-17.5 87t-31.5 73.5t-45.5 42t-58 -8.5zM568 530q7 -34 10 -75t1 -80.5t-10.5 -75
t-24.5 -57.5q-6 -10 -4.5 -18.5t6.5 -16.5t10 -17.5t5 -20.5q0 -8 -4 -17t-11 -18t-17 -15.5t-22 -7.5q-17 -2 -32.5 5t-27.5 17q-14 11 -26 26q-16 -6 -32.5 -12t-37.5 -10t-46.5 -3.5t-59.5 7.5q-33 7 -58 26.5t-43.5 46.5t-31 59t-20.5 64t-12.5 62t-6.5 52q-3 28 3 64.5
t19.5 75.5t35 76.5t50 69t64 53t77.5 28.5q32 5 58.5 7t49 -4t41 -23t35 -50.5t32 -86.5t30.5 -131z" />
    <glyph glyph-name="r" unicode="r" horiz-adv-x="484" 
d="M190 763q-7 -37 -10 -62.5t-5.5 -50t-4.5 -53.5t-7 -72q42 30 75 61q28 26 50 57t19 58q-4 29 -22.5 41.5t-39.5 17.5q-25 5 -55 3zM287 836q52 -24 80.5 -50.5t39 -53t6.5 -52.5t-16 -50q-29 -55 -100 -109q35 -31 65 -70q26 -34 49.5 -80.5t31.5 -103.5
q4 -30 -10 -43.5t-32.5 -16.5t-34.5 1t-17 8q-16 57 -32.5 98.5t-33 70t-32 46t-29.5 26.5q-33 22 -63 13q4 -77 8 -143q2 -29 4 -57.5t4 -54.5t4.5 -46.5t4.5 -32.5q3 -17 -12.5 -29t-36 -16.5t-39 0t-20.5 21.5q-5 43 -9.5 103.5t-8 129t-4 140t3 136.5t12 119.5
t23.5 87.5q4 9 27 15t53 7.5t61.5 -2t52.5 -12.5z" />
    <glyph glyph-name="s" unicode="s" horiz-adv-x="584" 
d="M251 391q28 4 49 -9t29.5 -31.5t2 -36t-34.5 -21.5q-47 -7 -75 -29t-35.5 -44t7.5 -35t55 -2q39 11 74.5 25t58.5 35t29.5 49.5t-11.5 68.5t-49.5 66.5t-68.5 48.5t-76 43t-71 50q-49 44 -67.5 88t-7 84t52.5 74t110 58q60 21 110.5 20t89.5 -16.5t65.5 -41.5t37.5 -55.5
t5 -58t-30.5 -49.5t-69.5 -30t-112 1q-31 4 -43 21.5t-9.5 35t17 29.5t36.5 6q34 -9 58.5 -6.5t38 10t16.5 18t-6 17.5q-30 26 -62 34t-60.5 3t-53 -21t-39 -38.5t-18.5 -48.5t8 -52q20 -44 48.5 -65.5t61.5 -36t69 -29.5t71 -46q40 -36 60.5 -87t17 -102.5t-33.5 -97.5
t-90 -71q-26 -11 -61.5 -18t-74.5 -9t-77.5 2t-69.5 16t-50.5 32.5t-21.5 52.5q-2 36 10 68.5t37.5 59.5t64 45.5t88.5 25.5z" />
    <glyph glyph-name="t" unicode="t" horiz-adv-x="595" 
d="M247 916q9 15 29 23.5t40.5 10t35.5 -3.5t15 -16q-2 -28 -1.5 -55t0.5 -49q0 -26 1 -48q30 -4 60 -7q26 -2 54 -2t51 7q7 2 18.5 -8t17.5 -23.5t1.5 -27t-28.5 -19.5q-25 -6 -55 -9t-57 -4q-32 -1 -64 0q3 -152 5 -276q1 -53 1.5 -105.5t0.5 -96.5t-0.5 -75.5t-1.5 -42.5
q-2 -14 -21 -21t-41.5 -8t-41.5 3.5t-21 14.5q-4 16 -6.5 50.5t-4 80t-2 98.5t-0.5 106q0 123 2 270q-29 2 -57 4q-24 2 -51.5 2.5t-48.5 0.5q-31 -1 -42.5 4.5t-10 14t12.5 18.5t26 19t29.5 15.5t23.5 7.5q15 2 35 2.5t38 1.5q21 1 43 1q-3 28 -3 54q0 23 3.5 47t14.5 41z
" />
    <glyph glyph-name="u" unicode="u" horiz-adv-x="705" 
d="M40 758q1 10 13 17.5t30.5 12t39 6t38.5 -0.5t29.5 -7.5t11.5 -14.5q-6 -139 -5 -233.5t7 -156t17 -94t26 -47t34.5 -16.5t41.5 -1q38 1 60.5 32t34.5 79t15.5 107t2.5 117.5t-4 110t-4 84.5q-1 17 11 29t30 19t39 9.5t39.5 0t31 -9t12.5 -16.5q0 -24 0.5 -54.5t0.5 -65
t-0.5 -70.5t-1.5 -70q-2 -80 -4 -165q-2 -37 2 -69q3 -27 11.5 -51.5t26.5 -31.5q18 -8 28.5 -16t16.5 -16q6 -9 9 -17q-2 -17 -14 -30q-11 -11 -34 -20.5t-66 -9.5q-20 0 -32 9.5t-19 20.5q-8 13 -12 30q-18 -19 -47 -35q-25 -14 -64.5 -25.5t-96.5 -14.5q-50 -3 -86 5
t-61.5 23t-42 34t-27.5 39.5t-17.5 39.5t-11.5 33q-7 17 -10.5 52.5t-5 82t-1.5 99t1 102.5t3 93t4 71z" />
    <glyph glyph-name="v" unicode="v" horiz-adv-x="750" 
d="M39 768q-9 13 -4 28t18.5 29.5t32.5 26.5t38 18.5t34.5 6t22.5 -10.5q32 -47 59 -95t51 -97t46.5 -99t45.5 -101q13 -28 20 -43.5t11.5 -24.5l7.5 -15t7.5 -14.5t12 -23t20.5 -40.5q7 31 11 48t6 27t3.5 16.5t4.5 16.5t7 28t12 50q22 91 38.5 179t25.5 179q2 19 25 31.5
t50 15.5t48 -5t19 -30q-9 -100 -29.5 -202.5t-41.5 -202.5q-6 -29 -13.5 -61.5t-17.5 -72t-23.5 -89.5t-31.5 -114q-4 -14 -26.5 -26.5t-49.5 -18.5t-53 -3.5t-37 17.5q-26 36 -49.5 80t-46 90.5t-43 92t-40.5 84.5q-27 52 -44.5 90.5t-34.5 74t-37.5 73t-54.5 87.5z" />
    <glyph glyph-name="w" unicode="w" horiz-adv-x="950" 
d="M127 719q10 20 36.5 30.5t53 12t44 -5.5t9.5 -22q-29 -56 -54.5 -114.5t-37 -118t-4 -119.5t45.5 -118l27 -42q8 13 18 28t20 29.5t19.5 27.5t16.5 22q17 21 25.5 34.5t14 24t10 19.5t13.5 21q19 26 27.5 38.5t14.5 11.5t14 -15.5t27 -42.5q17 -25 41 -50.5t51.5 -49.5
t57.5 -45t58 -38q13 -8 21 -13.5t21 -15.5l5 11q2 5 4.5 13.5t4.5 21.5q8 59 -3.5 119.5t-35.5 119.5t-56 115.5t-65 107.5q-9 14 6 28.5t39.5 22t50.5 5t39 -22.5q25 -39 55.5 -93t56.5 -114.5t41.5 -123.5t10.5 -120t-37 -104.5t-100 -75.5q-32 -13 -62.5 -9.5t-58.5 17.5
t-53.5 34.5t-46.5 41t-37.5 38.5t-26.5 26q1 2 -3 -8.5t-14 -27t-27.5 -36t-44 -36t-64 -27t-86.5 -9.5q-45 1 -73.5 24.5t-45.5 57t-24 71.5t-9 68q-3 52 -1.5 99.5t9.5 93t23 90.5t39 93z" />
    <glyph glyph-name="x" unicode="x" horiz-adv-x="714" 
d="M99 762q-12 16 -0.5 29.5t32 21t41.5 7.5t28 -10q17 -27 45 -65.5t54 -73.5q31 -41 63 -86l63 84q26 35 50.5 70.5t37.5 57.5q4 7 25 13.5t41.5 6.5t32 -8.5t-2.5 -31.5q-7 -12 -19 -29.5t-26.5 -39t-30.5 -45t-32 -45.5q-37 -53 -79 -112q52 -64 98 -120
q19 -24 39 -48.5t37.5 -46.5t32 -39.5t22.5 -27.5q9 -12 -1.5 -25t-28 -22t-36 -11.5t-25.5 6.5q-12 15 -28 33.5t-33 39t-35 41.5t-35 41q-40 47 -81 95q-30 -42 -57 -82q-23 -35 -48 -73.5t-41 -68.5q-6 -12 -18.5 -17.5t-27 -7.5t-29.5 0t-26 6t-16 10t0 12
q54 66 91 120.5t61 93.5q27 46 45 81q-35 53 -68 102q-14 21 -29.5 43.5t-30.5 44t-29 41.5t-26 35z" />
    <glyph glyph-name="y" unicode="y" horiz-adv-x="678" 
d="M51 825q-4 9 7.5 19.5t29.5 16.5t37 4.5t30 -16.5q12 -16 25.5 -38t27.5 -47.5t28.5 -52.5t27.5 -53q31 -61 62 -127q47 72 87 137q17 28 34.5 56.5t33 55t27.5 49.5t19 39q7 18 27 23.5t39.5 3.5t33.5 -10t10 -17q-38 -85 -80 -162t-78 -137q-42 -70 -83 -131v-130v-55
t0.5 -54.5t0.5 -49.5v-40q0 -18 -18.5 -30.5t-41.5 -17t-43.5 0.5t-23.5 23q-3 14 -2 42t3.5 62.5t4.5 72t2.5 71t-3 59.5t-11.5 37q-6 7 -21 32.5t-35 60.5t-42.5 77t-44.5 83.5t-40.5 79t-29.5 63.5z" />
    <glyph glyph-name="z" unicode="z" horiz-adv-x="738" 
d="M121 763q-33 0 -36.5 13t9.5 28.5t36 28.5t42 13q46 0 92.5 -3.5t94 -6.5t94 -4.5t92.5 2.5q6 1 19 -0.5t23.5 -6t15 -13.5t-5.5 -22q-43 -58 -78.5 -121.5t-78.5 -120.5q-38 -51 -69 -91.5t-59 -79.5t-55.5 -80t-58.5 -91q66 -7 122.5 -4.5t112 8.5t112.5 13t123 10
q33 1 36 -11t-10 -27.5t-35.5 -29t-41.5 -14.5q-66 -3 -133.5 -11t-134.5 -15t-134 -9.5t-133 5.5q-8 1 -17 3.5t-15.5 8t-8.5 13.5t5 19q64 101 134.5 194.5t136.5 192.5q20 30 33.5 53t26 44t27 43.5t36.5 51.5q-50 -5 -87 -3t-71.5 6.5t-72 9t-88.5 4.5z" />
    <glyph glyph-name="braceleft" unicode="{" horiz-adv-x="455" 
d="M340 410q21 -43 25.5 -84t1 -82.5t-9.5 -83.5t-6 -86q0 -1 -13 -0.5t-29 1.5l-42 3q0 45 0.5 81.5t0 71t-2.5 70.5t-6 81zM267 78l83 -4zM292 929q0 4 13.5 7.5t30 5.5t30 1.5t13.5 -3.5q4 -45 3.5 -82t-2.5 -73t-4.5 -73t-2.5 -82q0 -2 -13 0t-29 5l-42 8q0 44 2 77.5
t3.5 65t1.5 65t-4 78.5zM301 640q6 -1 13.5 -2t15.5 -3l42 -6q-13 -4 -37.5 -13t-53 -20.5t-56.5 -25t-48.5 -26t-29 -23.5t3.5 -18q41 -24 89.5 -48.5t99.5 -44.5l-81 -28q-11 5 -29 13t-38.5 18t-41.5 20t-38 19q-15 7 -31 14.5t-27.5 15.5t-16.5 17t1 20q12 20 40.5 37.5
t64.5 33t74.5 28.5t70.5 24z" />
    <glyph glyph-name="braceright" unicode="}" horiz-adv-x="477" 
d="M184 635q32 -11 71 -24t75 -28.5t64.5 -33t39.5 -37.5q6 -11 1 -20t-16.5 -17t-27 -15.5t-30.5 -14.5q-17 -8 -38 -18.5t-41.5 -20t-38.5 -18t-30 -13.5l-80 29q51 19 100 43t89 49q11 7 3 18t-28.5 23t-48.5 25t-56.5 24.5t-53 21t-37.5 14.5zM181 923q-5 -45 -5 -78.5
t1.5 -65t4 -65t2.5 -78.5l-42 -7q-16 -3 -29 -5t-13 -1q0 45 -3 82t-5 73t-2.5 73t4.5 82q0 3 13.5 3.5t30 -1t30 -5t13.5 -7.5zM122 67l42 2q16 1 28.5 1.5t13.5 0.5zM213 375q-5 -44 -7 -80.5t-2 -71t0.5 -71t0.5 -80.5l-13 -1.5t-29 -2.5t-29 -1.5t-13 0.5q0 45 -6 86.5
t-9 82.5t1.5 82.5t25.5 85.5z" />
    <glyph glyph-name="Euro" unicode="&#x20ac;" horiz-adv-x="1024" 
d="M436 820q9 16 29 24.5t40.5 10t35.5 -3.5t15 -16q-2 -28 -1.5 -72.5t1.5 -87.5q1 -50 2 -104q56 -4 106 -6q43 -2 85.5 -1.5t65.5 7.5q7 2 18 -8t17 -23.5t2 -27t-28 -19.5q-25 -6 -69 -9t-89 -5q-52 -2 -110 -1q2 -80 3 -150q0 -30 0.5 -60t0 -56.5t-1.5 -47.5t-2 -32
q-2 -14 -21 -21t-41.5 -8t-41.5 4t-21 15q-4 16 -6 40t-3.5 51.5t-1.5 58v59.5q1 69 4 145q-48 1 -92 3q-38 2 -76 2.5t-59 0.5q-31 -1 -42 4.5t-9.5 14t12.5 18.5t25.5 19t29.5 15.5t24 7.5q14 2 45 2.5t63 1.5q37 1 78 2q-4 59 -4 110q0 22 0.5 43.5t2.5 41t5.5 34.5
t8.5 24zM590 368q-6 8 -2 15t11.5 13t16.5 10t13 6q13 5 25.5 8.5t26.5 4.5q5 1 17 1t17 -7q24 -30 49 -59.5t49 -60.5q6 -8 2.5 -15t-11.5 -12.5t-17 -10l-13 -6.5q-12 -5 -25 -8t-26 -5h-17.5t-16.5 6q-25 30 -50 59.5t-49 60.5zM232 217q-8 0 -11 12t-2 29t5.5 34.5
t10.5 28.5q8 15 12 24.5t8 25.5q3 12 11.5 21t19.5 15t23 9.5t22 5.5q6 1 17 0.5t21 -4t16 -10.5t3 -19q-6 -25 -17 -49t-25 -47q-20 -35 -47.5 -54.5t-66.5 -21.5zM390 644q6 -6 1 -13.5t-16 -14.5t-26.5 -13t-31 -8.5t-29 -1.5t-20.5 8q-15 15 -26.5 28t-23 25.5t-23 25.5
t-25.5 30q-9 10 6.5 23.5t38.5 23.5t47 12.5t33 -8.5q14 -16 25 -30.5t21.5 -29t22 -28.5t26.5 -29zM701 622q-16 -20 -32 -20.5t-39 7.5t-31 16.5t-8 25.5q2 8 4 13t5.5 10t10 11.5t17.5 18.5t23 24t19 23q14 23 38 34.5t48 8.5q9 -1 18.5 -5t16.5 -11t9 -16.5t-5 -21.5
q-20 -34 -45.5 -61t-48.5 -57z" />
    <glyph glyph-name="quotedblleft" unicode="&#x201c;" horiz-adv-x="557" 
d="M215 882q-4 -23 -6 -46t1 -45.5t13 -43t30 -38.5q9 -8 6.5 -14t-10 -9.5t-17.5 -5.5t-17 -2q-26 0 -51 7.5t-42 23.5q-24 22 -36 46.5t-16.5 50.5t-2.5 53.5t7 54.5q1 9 13 13t28 4t34.5 -4t34 -10.5t24.5 -15.5t7 -19zM445 872q-4 -23 -6 -46t1 -45t13 -42.5t30 -38.5
q9 -8 6.5 -14t-10 -10t-17.5 -6t-16 -2q-26 0 -51.5 8t-42.5 24q-24 21 -37 46.5t-19 54t-5.5 57.5t4.5 56q1 9 13.5 12t30 2t37 -6t35.5 -13t26 -17.5t8 -19.5z" />
    <glyph glyph-name="quotedblright" unicode="&#x201d;" horiz-adv-x="557" 
d="M110 883q-3 15 19 28.5t50.5 21t53 6.5t27.5 -15q5 -27 5.5 -56t-5.5 -57.5t-19.5 -54t-37.5 -46.5q-17 -16 -42.5 -23.5t-51.5 -7.5q-6 0 -16 2t-17.5 5.5t-10 9.5t6.5 14q20 18 30 38.5t13 43t1 45.5t-6 46zM340 892q-2 10 7 19t24.5 15.5t33.5 10.5t34.5 4t28 -4
t13.5 -13q5 -27 7.5 -54.5t-2 -53.5t-17 -50.5t-36.5 -45.5q-17 -16 -42 -24t-51 -8q-7 0 -17 2t-17.5 6t-10 10t6.5 14q20 18 30 38.5t13 42.5t1 45t-6 46z" />
    <glyph glyph-name="endash" unicode="&#x2013;" horiz-adv-x="736" 
d="M340 413q-26 1 -51 1.5t-51 -0.5q-15 -5 -34 -10t-40 -7.5t-41.5 -1.5t-36.5 7t-18 15t3 18.5t15.5 18t19.5 12.5q57 26 119.5 35t126.5 9t128 -4t126 -4q10 0 23.5 -2.5t23.5 -8t13 -14t-8 -21.5t-26.5 -22t-33.5 -15t-37 -9t-35 -3q-48 1 -93 3t-93 3z" />
    <glyph glyph-name="emdash" unicode="&#x2014;" horiz-adv-x="810" 
d="M365 458q-60 1 -120 0q-17 -5 -40 -9.5t-47.5 -7t-49 -1.5t-43.5 7q-18 6 -21 14.5t3 17.5t18 17t24 12q67 25 140.5 34t149 9.5t151.5 -4t149 -5.5q11 0 27 -2t28 -7.5t15.5 -14t-9.5 -20.5t-31.5 -20.5t-39.5 -14.5t-43.5 -8.5t-41.5 -2.5q-110 1 -219 6z" />
    <glyph glyph-name="exclamdown" unicode="&#xa1;" horiz-adv-x="328" 
d="M74 51q7 178 16 350.5t29 349.5q1 12 19.5 14t40 -3.5t38 -16.5t15.5 -24q-20 -177 -30.5 -350t-15.5 -351q0 -11 -18 -12.5t-39 3t-38 15t-17 25.5zM131 864q0 26 3 52t4 52q0 8 18 9t39 -3.5t38.5 -14t17.5 -22.5q-1 -26 -3.5 -51.5t-3.5 -51.5q0 -12 -18 -15t-39 1.5
t-38.5 15.5t-17.5 28z" />
    <glyph glyph-name="ordfeminine" unicode="&#xaa;" horiz-adv-x="355" 
d="M165 755q-13 -10 -20 -32.5t-9 -48.5t0 -50.5t7 -38.5q3 -11 13.5 -15.5t22 -4t21 4.5t11.5 10q2 9 4.5 35t4.5 54t3.5 50.5t1.5 24.5q0 3 -7.5 6t-17.5 5.5t-20.5 2.5t-14.5 -3zM224 531q-13 -3 -32 -7t-40 -4.5t-41 5t-34 21t-19.5 43.5t2.5 73q9 48 25 76t34.5 43
t38 19t35 3.5t25 -2t9.5 0.5q0 3 2 13.5t1.5 23.5t-5 26.5t-17 21.5t-34.5 8.5t-58 -11.5q-2 0 -9.5 1.5t-12 5t-2 9t21.5 13.5q7 3 23 7.5t36 7.5t41 3t38.5 -7.5t29 -24t11.5 -45.5q0 -38 -0.5 -85.5t-2 -90.5t-5.5 -75t-11 -40q-8 -9 -20.5 -18.5t-29.5 -13.5z" />
    <glyph glyph-name="twosuperior" unicode="&#xb2;" horiz-adv-x="248" 
d="M102 906q1 -4 -3.5 -7.5t-11 -5t-12.5 -0.5t-7 6q-6 19 4 34t27 23t36.5 9t33.5 -7q7 -4 11 -13.5t5.5 -20.5t0 -22.5t-6.5 -19.5q-13 -20 -24 -35.5t-21.5 -30t-21 -30t-23.5 -35.5l11 2q13 2 29 6q18 4 34 7.5t34 5.5q12 1 15 -2t-1 -7.5t-12.5 -10t-18.5 -9.5
q-23 -8 -37.5 -10t-37.5 -6l-36 -6q-1 0 -6.5 0.5t-11.5 1t-10 2.5t-2 5q17 25 29.5 46t30.5 45q6 9 15 20.5t17 25t13.5 27t5.5 25.5q0 6 -6.5 16.5t-16.5 10.5q-14 0 -21.5 -14t-3.5 -26z" />
    <glyph glyph-name="threesuperior" unicode="&#xb3;" horiz-adv-x="201" 
d="M77 914q-1 -3 -6 -5.5t-10.5 -3.5t-9.5 -0.5t-3 3.5q3 11 14 21.5t24.5 18t27.5 10t23 -3.5q15 -9 12.5 -26t-12 -33.5t-20 -29l-10.5 -12.5q17 5 28 3.5t24 -16.5q12 -14 9.5 -36t-10.5 -36q-10 -17 -19.5 -27.5t-20.5 -16.5t-24.5 -8.5t-30.5 -3.5q-8 0 -9.5 3.5t0 8
t5 8t6.5 3.5q12 1 25 6t23.5 12.5t17 17.5t6.5 21q0 51 -57 38q-2 -1 -8.5 -0.5t-2.5 5.5q10 14 23 30.5t22 30.5q9 15 6 24.5t-11 12.5t-18 -1.5t-14 -17.5z" />
    <glyph glyph-name="acute" unicode="&#xb4;" horiz-adv-x="300" 
d="M119 920q1 13 20 19t41.5 4.5t40.5 -8.5t17 -19q-2 -24 -5 -48t-11 -45.5t-22 -40t-37 -31.5q-17 -10 -38.5 -19t-41.5 -4q-5 1 -12.5 4.5t-13 8.5t-6 10.5t8.5 10.5q20 11 31 29t16.5 40t7.5 45t4 44z" />
    <glyph glyph-name="onesuperior" unicode="&#xb9;" horiz-adv-x="154" 
d="M72 950q0 7 6 12t13 6t13 -1.5t6 -9.5q-1 -98 -5 -153.5t-17 -87.5q-2 -5 -10 -9t-16.5 -5t-14.5 1.5t-3 8.5q18 45 25 76.5t7.5 57.5t-2 50t-2.5 54z" />
    <glyph glyph-name="ordmasculine" unicode="&#xba;" horiz-adv-x="397" 
d="M179 870q-16 -3 -29.5 -18t-22.5 -36t-13.5 -47t-2 -51t12 -47t28.5 -36q10 -8 25 -10t30.5 2t28.5 14t19 25q10 25 12.5 46t1.5 38.5t-4.5 31t-5.5 22.5q-3 12 -10.5 25t-18 23t-23.5 15.5t-28 2.5zM348 807q4 -32 2.5 -70.5t-17 -74t-47.5 -63t-87 -35.5
q-9 -1 -23.5 -1.5t-30 0.5t-29 3t-20.5 6q-29 17 -45.5 48.5t-21 70t2.5 79.5t25.5 77t48 62.5t69.5 35.5q37 8 67 -3t52.5 -32t36 -49t17.5 -54z" />
    <glyph glyph-name="onequarter" unicode="&#xbc;" horiz-adv-x="361" 
d="M259 811q-8 -6 -13.5 -16.5t-9 -22t-5.5 -22t-3 -15.5q-2 -6 6.5 -4t19.5 7q12 5 28 14q-4 -21 -6.5 -46.5t-2.5 -42.5q0 -6 11 -6t12 8q0 10 1.5 30.5t4 44t6.5 46t11 35.5q2 3 -7 4.5t-13 -4.5q-2 -3 -4.5 -11.5t-4.5 -17.5q-3 -11 -5 -22l-31 -16q1 8 5 18q3 8 7.5 18
t12.5 21q2 2 -0.5 2.5t-6 0.5t-8 -1t-5.5 -2zM73 942q0 5 6 8.5t12.5 4t12.5 -1t6 -6.5q-1 -66 -5.5 -103.5t-15.5 -58.5q-2 -4 -10 -6.5t-16 -3t-13.5 1t-3.5 5.5q14 25 20 47t7.5 41.5t0.5 37t-1 34.5zM102 649q-7 -5 -18 -6.5t-19.5 0.5t-10.5 7.5t10 14.5q10 8 16.5 22
t13.5 25q9 14 17 27t17 27q8 12 19 29.5t22 36t21 36.5t18 32q6 11 17 16.5t21 5.5t16 -5t0 -15q-9 -17 -21 -37t-24.5 -41t-25 -41l-22.5 -36q-15 -24 -29.5 -52t-37.5 -46z" />
    <glyph glyph-name="onehalf" unicode="&#xbd;" horiz-adv-x="364" 
d="M239 751q1 -2 -2.5 -4.5t-8.5 -3.5t-10 0t-6 4q-5 13 3 22.5t21.5 15t29 6t26.5 -4.5q11 -6 13 -22.5t-6 -27.5q-20 -27 -35.5 -44t-35.5 -43q6 0 9 1q5 1 10 1.5t13 2.5q14 2 26.5 4t26.5 4q10 1 12 -1t-1 -5t-10 -6.5t-14 -6.5q-19 -5 -29.5 -6t-29.5 -5l-28 -3h-4.5
t-9 1t-8 2t-1.5 3q13 17 22.5 30.5t23.5 29.5q11 13 26 30.5t15 34.5q0 4 -5.5 11t-13.5 7q-10 0 -16 -9.5t-3 -17.5zM62 923q0 5 5.5 8t12 4t12 -1t5.5 -6q-1 -65 -4.5 -101.5t-15.5 -57.5q-2 -3 -9.5 -5.5t-15.5 -3t-13 1t-3 5.5q14 24 19.5 45t7 40.5t0.5 37t-1 33.5z
M90 636q-6 -5 -17 -6.5t-19.5 0.5t-10.5 7.5t9 13.5t17.5 21.5t12.5 24.5q8 14 16.5 27t17.5 27q8 12 18.5 29t21 35t20 35.5t17.5 31.5q6 10 17 16t21 6t15.5 -5t-0.5 -15q-8 -15 -19.5 -35t-24.5 -41t-25 -41t-22 -35q-15 -23 -29 -50.5t-36 -45.5z" />
    <glyph glyph-name="threequarters" unicode="&#xbe;" horiz-adv-x="364" 
d="M259 811q-8 -6 -13.5 -16.5t-9 -22t-5.5 -22t-3 -15.5q-2 -6 6.5 -4t19.5 7q12 5 28 14q-4 -21 -6.5 -46.5t-2.5 -42.5q0 -6 11 -6t12 8q0 10 1.5 30.5t4 44t6.5 46t11 35.5q2 3 -7 4.5t-13 -4.5q-2 -3 -4.5 -11.5t-4.5 -17.5q-3 -11 -5 -22l-31 -16q1 8 5 18q3 8 7.5 18
t12.5 21q2 2 -0.5 2.5t-6 0.5t-8 -1t-5.5 -2zM67 940q-1 -2 -5 -3.5t-8.5 -2t-8 -0.5t-2.5 2q3 7 12 14.5t20 12.5t22.5 7t19.5 -2q13 -6 10.5 -18t-10 -23t-16.5 -19.5l-9 -8.5q14 2 23.5 1.5t20.5 -11.5q10 -10 8.5 -24.5t-9.5 -24.5q-18 -24 -34.5 -30.5t-45.5 -8.5
q-6 0 -7.5 2.5t-0.5 5.5t4 5.5t6 2.5q10 0 21 3.5t20 9t14.5 12.5t5.5 14q0 36 -49 27q-2 -1 -7 -1t-2 4q8 10 19 21t19 21t5.5 16.5t-9 9t-15 -0.5t-12.5 -13zM113 660q-6 -5 -17 -6.5t-19.5 0.5t-10.5 7.5t9 13.5t17.5 21.5t12.5 24.5q8 14 16.5 27t17.5 27q8 12 18.5 29
t21 35t20 35.5t17.5 31.5q6 10 17 15.5t21 6t15.5 -4.5t-0.5 -15q-8 -16 -19.5 -36t-24.5 -41t-25 -40.5t-22 -34.5q-15 -23 -29 -51t-36 -45z" />
    <glyph glyph-name="questiondown" unicode="&#xbf;" horiz-adv-x="428" 
d="M188 855q-5 -1 -13 0t-15 4t-11.5 8.5t-2.5 14.5q3 17 10.5 23.5t21.5 8.5q1 -2 3 0q4 1 9 11q8 16 26.5 23t35.5 6q14 -2 24.5 -11t2.5 -25q-30 -56 -91 -63zM262 134q6 15 24.5 22.5t36 7t28 -10.5t2.5 -29q-20 -45 -47.5 -68t-58.5 -27.5t-62.5 7.5t-58.5 36t-47.5 58
t-28.5 75q-13 62 -1 110.5t36 90.5t53.5 80t51 79.5t28.5 89t-13 108.5q-5 16 7 28.5t29.5 17.5t35 1t23.5 -20q16 -49 23 -90t1.5 -78t-23.5 -71t-51 -69q-17 -17 -36 -37t-35.5 -42t-28 -46.5t-12.5 -51.5q0 -9 5.5 -33t15.5 -52t23 -55.5t27 -43.5t27.5 -15.5t25.5 28.5z
" />
    <glyph glyph-name="Aacute" unicode="&#xc1;" horiz-adv-x="746" 
d="M394 765q-25 -61 -46 -116q-9 -23 -18.5 -47t-17.5 -45.5t-15.5 -39t-11.5 -28.5q52 6 92 10l34 2t30.5 0.5t22 -2t9.5 -5.5zM340 934q4 10 20.5 20t36 15.5t36 5t21.5 -10.5q20 -49 44 -120.5t48.5 -154.5t49 -170.5t47 -167.5t41.5 -146.5t33 -107.5q6 -17 -10 -30.5
t-38 -20t-43 -6t-26 11.5q-10 21 -21.5 56.5t-23.5 76.5t-24 83t-21 76t-15 55.5l-6 21.5q-9 -1 -29.5 -0.5t-45.5 1t-52 1.5t-49.5 1.5t-37.5 -0.5t-16 -3q-9 -24 -26.5 -71.5t-37 -101.5t-38 -105.5t-30.5 -82.5q-3 -10 -22.5 -17.5t-40.5 -10.5t-36.5 1.5t-10.5 18.5
q12 42 36 110t54 149t64 169.5t65.5 172.5t58.5 157t45 124z" />
    <glyph glyph-name="Ccedilla" unicode="&#xc7;" horiz-adv-x="590" 
d="M457 844q-31 4 -65.5 5.5t-64.5 1t-52 -4.5t-28 -12q-31 -39 -47 -88t-21 -100t-1 -100.5t12.5 -89t19.5 -65.5t21 -30q42 -17 76.5 -20.5t63.5 -1t54 7.5t48 7q32 2 42.5 -11.5t7.5 -31.5t-16 -35.5t-27 -21.5q-17 -5 -46.5 -9t-58.5 -8q-34 -4 -72 -8q1 -14 4 -24
q2 -9 5 -15.5t8 -4.5q39 12 58 9.5t27 -12.5t8 -23v-23q0 -41 -13.5 -62t-33 -30.5t-41 -11.5t-37.5 -5q-19 -3 -34 2.5t-24 13.5t-11 15.5t5 7.5q24 1 49.5 2t46.5 6.5t33 16.5t9 31q-3 27 -13.5 32.5t-23 2.5t-25 -9.5t-19.5 -4.5q-9 3 -15 17t-11 30q-5 18 -8 42
q-31 4 -59 13q-24 8 -48 21.5t-36 36.5q-26 49 -38 101t-15 104t1 101t11.5 90.5t16.5 74t15 51.5q14 41 41.5 67t62 40t74 18.5t77.5 2.5t72 -9t58 -15q16 -6 26 -21t9 -30.5t-14.5 -26t-43.5 -7.5z" />
    <glyph glyph-name="Eacute" unicode="&#xc9;" horiz-adv-x="605" 
d="M449 948q15 5 26 -10.5t15 -38t0 -44.5t-18 -29q-62 -32 -107 -61t-76.5 -54.5t-51.5 -47.5t-32 -40q-27 -42 -22 -74q58 0 112 -1q22 0 46 -1t46 -2.5t40.5 -3t31.5 -3.5q19 -3 21 -15.5t-6 -26.5t-23 -25t-30 -10q-23 1 -63.5 1.5t-79.5 1.5q-47 1 -97 1q-2 -39 4 -75
q5 -31 18 -62.5t41 -51.5q47 -34 109.5 -63.5t137.5 -61.5q17 -7 18.5 -30.5t-9 -46.5t-32 -36.5t-50.5 -1.5q-63 26 -131 56t-116 68q-21 17 -47.5 43t-47.5 67t-31.5 100.5t0.5 143.5q8 61 24.5 119.5t58.5 113.5t117.5 105.5t203.5 95.5z" />
    <glyph glyph-name="Iacute" unicode="&#xcd;" horiz-adv-x="263" 
d="M69 874q-1 12 19.5 20t45 11.5t45.5 1.5t21 -11q5 -119 4 -216.5t-4 -190.5t-6 -190.5t-3 -216.5q0 -12 -20.5 -20.5t-45 -11.5t-45 -0.5t-20.5 10.5q1 119 4.5 216.5t6.5 190.5t3.5 190.5t-5.5 216.5z" />
    <glyph glyph-name="Ntilde" unicode="&#xd1;" horiz-adv-x="546" 
d="M52 738q11 -71 19.5 -154t13 -172.5t4 -180.5t-7.5 -176q-1 -12 12 -14t29.5 2.5t31 14t16.5 18.5q5 28 7.5 65t2.5 77.5t-1 83.5t-3 83q-5 94 -14 195q9 -9 23.5 -24.5t33 -35t39.5 -41.5t41 -44q48 -51 101 -111q1 -56 2 -106l2 -86t2 -65q0 -9 14 -10t30.5 3.5
t30.5 13t14 18.5q3 48 2.5 109.5t-2.5 128.5t-6 133.5t-9 124.5t-10 102t-10 66q-2 9 -16.5 9t-31 -5t-29.5 -13t-12 -17q3 -23 6.5 -66t6.5 -86q4 -50 7 -107q-52 59 -100 114q-20 23 -41.5 47.5t-41.5 47t-37.5 42t-30.5 33.5q-7 7 -22 8.5t-30 -1.5t-26.5 -9.5
t-9.5 -14.5zM238 880q-17 0 -34.5 -5.5t-39.5 -12.5q-20 -9 -34.5 -15.5t-37.5 2.5q-12 4 -14 18.5t3.5 29.5t18 27.5t29.5 14.5q36 3 65 5t58.5 3t64 1.5t82.5 0.5q7 0 16 -1.5t16 -6t9 -11.5t-5 -18t-18 -20.5t-23.5 -17t-25.5 -11.5t-23 -4q-16 0 -29 3.5t-25 7t-24.5 7
t-28.5 3.5z" />
    <glyph glyph-name="Oacute" unicode="&#xd3;" horiz-adv-x="604" 
d="M261 781q-28 -8 -50 -47t-35 -96t-16.5 -124t5 -130t29.5 -115t56 -79q8 -6 25.5 -7t38 5.5t39.5 20t31 36.5q27 53 39.5 109.5t16 107t0.5 89.5t-7 57q-8 34 -26 68t-42 59.5t-51 39t-53 6.5zM565 596q12 -94 9 -173t-27.5 -146t-73.5 -124t-129 -108q-14 -9 -39 -10.5
t-52.5 2.5t-51.5 12t-35 18q-35 33 -60.5 86.5t-40.5 119.5t-19.5 139.5t2 145t24.5 137t47.5 115.5t70.5 80t95 31q55 1 102.5 -25.5t84 -71t61 -104t32.5 -124.5z" />
    <glyph glyph-name="multiply" unicode="&#xd7;" horiz-adv-x="730" 
d="M576 788q18 3 38 -6t35.5 -23t22.5 -29t-2 -22q-11 -9 -25.5 -21.5t-30.5 -27t-33 -29.5t-33 -30q-38 -34 -78 -71q36 -45 69 -84q14 -17 29 -33.5t29 -31t27 -26t23 -17.5q6 -4 6.5 -19t-5.5 -28.5t-19.5 -19.5t-34.5 8q-11 7 -25 18.5t-29.5 26t-32 31l-32.5 32.5
q-37 38 -77 81q-60 -55 -112 -103q-22 -20 -45 -40.5t-43 -38.5t-36.5 -31.5t-25.5 -19.5q-12 -8 -30.5 1.5t-34.5 25.5t-25.5 33.5t-3.5 25.5q10 13 26.5 31t37 37.5t43 40t45.5 40.5q53 46 113 95q-32 38 -61 71q-25 29 -50.5 57.5t-40.5 44.5q-22 22 -25.5 34.5t4 17
t22.5 3t32 -6t32 -11.5t22 -13q11 -10 33.5 -32t44.5 -45q26 -26 55 -57q42 43 81 77q16 15 33.5 29t33 25.5t29.5 19.5t24 10z" />
    <glyph glyph-name="Uacute" unicode="&#xda;" horiz-adv-x="705" 
d="M65 872q1 15 20.5 26t43 15.5t42.5 3t19 -11.5q-5 -126 -12.5 -247.5t-12.5 -247.5q-1 -30 -2 -51t-1.5 -40.5t-1 -40.5t-0.5 -52q0 -32 27.5 -47.5t65 -21.5t75 -6.5t57.5 -1.5q58 -4 86 7t37 31.5t6.5 47t-4.5 53.5q-2 31 -2.5 75.5t-1 91.5t-0.5 91.5v76.5
q-1 41 -2 71t1 58t8 57.5t20 69.5q4 13 23 23.5t40 15.5t37 2.5t15 -14.5q-6 -57 -8.5 -119.5t-2.5 -126.5t0.5 -126.5t0.5 -118.5q0 -22 3 -65t4.5 -90.5t-2 -90t-15.5 -63.5q-17 -28 -55.5 -43.5t-88.5 -21.5t-106.5 -4.5t-109.5 6t-97 10l-68 8.5q-2 0 -12 6t-21.5 16.5
t-20.5 26t-9 35.5q0 100 2 188.5t5.5 175t8 175t9.5 188.5z" />
    <glyph glyph-name="agrave" unicode="&#xe0;" 
 />
    <glyph glyph-name="aacute" unicode="&#xe1;" 
d="M253 526q-18 -13 -30 -38.5t-19 -57.5t-10 -68t-2 -70t5 -63.5t10 -48.5q7 -23 28.5 -32t45 -8t43 10t22.5 21t6.5 40.5t6.5 64.5t5.5 75t4.5 72t3.5 56t2.5 26q1 4 -14.5 10.5t-36.5 11t-41.5 5.5t-29.5 -6zM373 70q-26 -7 -65 -15t-81.5 -8.5t-83.5 10.5t-69.5 43
t-39.5 89t6 149q18 97 50 154.5t70 87.5t77 38t70.5 7.5t51.5 -4.5t20 1t3.5 26.5t2.5 48t-10 54t-34 44t-70 18t-118 -23.5q-3 -1 -11 0t-17 4t-16 8t-6.5 12t11 15.5t36.5 19.5q14 5 46.5 15t72.5 16t83 5t78.5 -16.5t58.5 -49t23 -92.5v-112t-1 -123t-3.5 -121
t-6.5 -107.5t-11 -82.5t-16 -45q-15 -17 -41.5 -37t-59.5 -28z" />
    <glyph glyph-name="acircumflex" unicode="&#xe2;" 
 />
    <glyph glyph-name="atilde" unicode="&#xe3;" 
 />
    <glyph glyph-name="adieresis" unicode="&#xe4;" 
 />
    <glyph glyph-name="ccedilla" unicode="&#xe7;" horiz-adv-x="590" 
d="M433 765q-27 3 -56.5 4.5t-56 0.5t-45.5 -4t-24 -10q-27 -34 -40.5 -76t-18 -86.5t-1.5 -87.5t10.5 -77.5t17 -57t18.5 -25.5q36 -15 66 -18t55.5 -1t47 6.5t41.5 6.5q28 2 37 -10t6 -28t-14 -30.5t-23 -18.5q-14 -5 -39 -8.5t-51 -6.5q-30 -4 -63 -7q1 -11 3 -20
q2 -8 4.5 -14t6.5 -4q33 10 50 8t24 -10.5t7 -20v-20.5q0 -35 -11.5 -53t-28.5 -26.5t-36 -10t-33 -4.5q-17 -3 -30 2t-20.5 12t-9 13.5t4.5 6.5q21 1 43 2t40 5.5t28.5 14t8.5 27.5q-3 23 -12 28t-20 2t-21.5 -8.5t-17.5 -3.5q-8 2 -13 14t-9 26q-4 16 -7 36q-28 3 -52 11
q-21 7 -41 19.5t-31 32.5q-22 42 -33 87.5t-13.5 90t1 87t10 79t14 64.5t13.5 45q12 35 36 57.5t54 35t64 16t67 1.5t62.5 -8t50.5 -13q14 -5 22.5 -18t8 -26t-12.5 -22.5t-38 -6.5z" />
    <glyph glyph-name="eacute" unicode="&#xe9;" horiz-adv-x="609" 
d="M498 925q18 5 31 -9.5t17.5 -35t0 -40.5t-20.5 -27q-72 -30 -124.5 -56t-89.5 -49.5t-60.5 -43.5t-37.5 -36q-33 -39 -26 -68q69 0 131 -1q26 0 53.5 -1t53 -2t47.5 -2.5t37 -3.5q22 -3 24.5 -14.5t-6.5 -24t-26.5 -22.5t-35.5 -10q-13 0 -32 0.5t-41 1t-46 1t-47 0.5
q-54 1 -114 1q-3 -35 4 -68q6 -28 21.5 -57.5t48.5 -47.5q54 -30 127.5 -57.5t160.5 -56.5q20 -7 22 -28.5t-11 -42t-38 -33t-59 -1.5q-36 12 -82.5 29.5t-93 37.5t-88.5 40.5t-68 39.5q-23 17 -46 39.5t-38 55.5t-18.5 78.5t10.5 107.5q9 38 19 75.5t28 73.5t47.5 70
t78 66.5t118.5 62.5t169 58z" />
    <glyph glyph-name="iacute" unicode="&#xed;" horiz-adv-x="281" 
d="M60 812q-2 28 14.5 48.5t37 29t38.5 2t20 -32.5q4 -53 3.5 -105t-2.5 -104t-4.5 -104.5t-2.5 -104.5q0 -39 2 -70.5t4 -61t2.5 -60.5t-1.5 -69q-2 -26 -20 -43.5t-38.5 -22t-37.5 6.5t-15 41q2 38 1 69t-3.5 61t-4 61.5t-0.5 69.5q2 99 7.5 194.5t-0.5 194.5z" />
    <glyph glyph-name="ntilde" unicode="&#xf1;" horiz-adv-x="658" 
d="M337 803h-14.5t-9 -0.5t-10.5 -2l-18 -4.5q-12 -4 -21 -8t-18 -6.5t-19 -2t-23 4.5t-15 17t4 27t19.5 25t33.5 13q41 3 61 4.5t38.5 2t45 0.5h80.5q7 0 17.5 -1.5t18.5 -5.5t10.5 -10.5t-6.5 -16.5q-8 -9 -20 -18t-25.5 -15.5t-28 -10.5t-27.5 -4q-18 0 -25 2t-11.5 4
t-11.5 4t-25 2zM216 116q1 -11 -14 -19.5t-34 -12.5t-35.5 -3t-17.5 9q-11 91 -11 187t8 186q2 26 0 58t-2 63.5t6 60t25 48.5q5 5 18.5 11.5t28.5 10.5t28 4t19 -7q19 -26 36.5 -56t32.5 -61.5t28.5 -63.5t26.5 -60q4 -10 11.5 -30.5t17 -46t20 -52.5t20 -49t18 -36.5
t14.5 -14.5v32.5t-0.5 28t-0.5 28v32.5q0 85 1.5 169t1.5 169q0 11 16 19t34.5 12t34.5 2.5t16 -8.5q0 -68 -3 -136.5t-4.5 -137.5t0 -138t10.5 -136q6 -45 -11.5 -66t-65.5 -25q-36 -3 -60.5 18t-41.5 52t-29.5 65.5t-24.5 58.5q-30 61 -55.5 122t-60.5 121
q-3 -26 -6 -46.5t-4.5 -39t-1.5 -38.5t2 -46q3 -30 3 -59.5v-59.5t1 -60t5 -59z" />
    <glyph glyph-name="oacute" unicode="&#xf3;" horiz-adv-x="663" 
d="M323 676q-29 -6 -53 -32t-40 -64t-23.5 -83.5t-3.5 -90t21.5 -83.5t50.5 -64q18 -14 44.5 -17t53.5 3.5t50 24t34 44.5q18 44 22.5 82t2.5 68.5t-8 54.5t-10 39q-6 22 -19 45.5t-31.5 41.5t-41.5 27t-49 4zM622 565q5 -37 6 -81t-6.5 -88.5t-25 -87.5t-49 -78.5t-78 -61
t-112.5 -34.5q-15 -2 -41 -2.5t-53 1t-51.5 5.5t-36.5 11q-52 29 -81.5 85t-37.5 124t5 141t46 136.5t85.5 110t122.5 62.5q65 15 118.5 -4t93.5 -56.5t64 -87t31 -95.5z" />
    <glyph glyph-name="uacute" unicode="&#xfa;" horiz-adv-x="689" 
d="M45 739q1 10 13 17t29.5 11.5t38 6t37.5 -0.5t28.5 -7t10.5 -14q-5 -135 -4.5 -227.5t6.5 -152t17 -91t26 -46t33.5 -16t40.5 -0.5q37 1 59 31t33.5 76.5t15 104t2.5 114t-4.5 107t-4.5 82.5q-1 16 11 28t29.5 18.5t38.5 9t39 0.5t30 -8t12 -16v-53.5v-64t-0.5 -68.5
t-1.5 -68q-2 -77 -4 -160q-2 -36 2 -67q3 -26 11.5 -50t25.5 -31t28 -15t16 -16q6 -9 9 -17q-2 -17 -14 -29q-11 -11 -33 -20t-64 -9q-20 0 -31.5 9t-18.5 20q-8 12 -11 29q-18 -18 -46 -33q-24 -13 -62 -25t-94 -14q-73 -4 -116.5 14t-68.5 45.5t-36 58t-19 51.5
q-6 16 -10 50.5t-5.5 79.5t-1.5 96.5t1 100t3 90.5t4 69z" />
    <glyph glyph-name="minus" unicode="&#x2212;" horiz-adv-x="736" 
d="M340 413q-26 1 -51 1.5t-51 -0.5q-15 -5 -34 -10t-40 -7.5t-41.5 -1.5t-36.5 7t-18 15t3 18.5t15.5 18t19.5 12.5q57 26 119.5 35t126.5 9t128 -4t126 -4q10 0 23.5 -2.5t23.5 -8t13 -14t-8 -21.5t-26.5 -22t-33.5 -15t-37 -9t-35 -3q-48 1 -93 3t-93 3z" />
  </font>
</defs>
</svg>
